<?xml version="1.0" encoding="UTF-8" standalone="no"?>
<svg
   fill="none"
   viewBox="0 0 15 15"
   width="30"
   height="30"
   version="1.1"
   id="svg2"
   sodipodi:docname="c_sharp_icon.svg"
   inkscape:version="1.4.2 (ebf0e94, 2025-05-08)"
   xmlns:inkscape="http://www.inkscape.org/namespaces/inkscape"
   xmlns:sodipodi="http://sodipodi.sourceforge.net/DTD/sodipodi-0.dtd"
   xmlns="http://www.w3.org/2000/svg"
   xmlns:svg="http://www.w3.org/2000/svg">
  <defs
     id="defs2" />
  <sodipodi:namedview
     id="namedview2"
     pagecolor="#ffffff"
     bordercolor="#000000"
     borderopacity="0.25"
     inkscape:showpageshadow="2"
     inkscape:pageopacity="0.0"
     inkscape:pagecheckerboard="0"
     inkscape:deskcolor="#d1d1d1"
     showgrid="false"
     inkscape:zoom="27.166667"
     inkscape:cx="14.981595"
     inkscape:cy="15"
     inkscape:window-width="1920"
     inkscape:window-height="1017"
     inkscape:window-x="-8"
     inkscape:window-y="-8"
     inkscape:window-maximized="1"
     inkscape:current-layer="svg2" />
  <path
     d="M10 8V7H11V8H10Z"
     fill="purple"
     id="path1" />
  <path
     clip-rule="evenodd"
     d="M7.5 0.421143L14 4.21281V10.7872L7.5 14.5788L1 10.7872V4.21281L7.5 0.421143ZM6.33156 4C4.49159 4 3 5.49159 3 7.33156V7.66844C3 9.50841 4.49159 11 6.33156 11C6.84877 11 7.35887 10.8796 7.82148 10.6483L8.22361 10.4472L7.77639 9.55279L7.37426 9.75385C7.05052 9.91573 6.69352 10 6.33156 10C5.04387 10 4 8.95613 4 7.66844V7.33156C4 6.04387 5.04387 5 6.33156 5C6.69352 5 7.05052 5.08427 7.37426 5.24615L7.77639 5.44721L8.22361 4.55279L7.82148 4.35172C7.35887 4.12042 6.84877 4 6.33156 4ZM9 5V6H8V7H9V8H8V9H9V10H10V9H11V10H12V9H13V8H12V7H13V6H12V5H11V6H10V5H9Z"
     fill="purple"
     fill-rule="evenodd"
     id="path2" />
  <path
     style="fill:#ffffff;stroke-width:0.0368098"
     d="M 12.075092,21.95284 C 9.424826,21.71766 7.1523415,19.894747 6.3372206,17.350107 6.1633357,16.807274 6.0743447,16.302855 6.0323579,15.622086 5.9860674,14.871536 6.0341042,13.935531 6.1474613,13.379279 6.4982857,11.657754 7.4554294,10.199838 8.8895706,9.2025129 10.371195,8.172167 12.229119,7.7922935 14.000851,8.1574537 c 0.572071,0.1179057 1.084986,0.3023161 1.782374,0.6408242 l 0.635985,0.3087037 -0.428437,0.8575521 c -0.23564,0.4716533 -0.434838,0.8644223 -0.442663,0.8728193 -0.0078,0.0084 -0.275148,-0.110234 -0.594052,-0.263625 -0.991376,-0.476844 -1.52705,-0.5998314 -2.47553,-0.568367 -0.442263,0.01467 -0.649182,0.03938 -0.920246,0.109906 -0.899527,0.234027 -1.5782939,0.617882 -2.2104765,1.250065 -0.7355601,0.73556 -1.1869656,1.656114 -1.3265891,2.705321 -0.058303,0.43812 -0.022002,1.8949 0.055559,2.229625 0.5132385,2.214945 2.3579446,3.705561 4.5858016,3.705561 0.819846,0 1.382296,-0.142256 2.291481,-0.579567 0.318904,-0.15339 0.586227,-0.272021 0.594052,-0.263625 0.0078,0.0084 0.206919,0.400958 0.442432,0.872358 l 0.428206,0.85709 -0.560486,0.27448 c -1.027471,0.50317 -1.692538,0.70052 -2.661943,0.789897 -0.45206,0.04168 -0.616627,0.04115 -1.121227,-0.0036 z"
     id="path3"
     transform="scale(0.5)" />
  <path
     style="fill:#ffffff;stroke-width:0.0368098"
     d="M 18,18.97546 V 17.981595 H 17.006135 16.01227 v -0.97546 -0.97546 H 17.006135 18 V 15 13.969325 H 17.006135 16.01227 v -0.97546 -0.97546 H 17.006135 18 V 11.02454 10.030675 h 0.993865 0.993865 v 0.993865 0.993865 H 21 22.01227 V 11.02454 10.030675 H 23.006135 24 v 0.993865 0.993865 h 0.993865 0.993865 v 0.97546 0.97546 H 24.993865 24 V 15 16.030675 h 0.993865 0.993865 v 0.97546 0.97546 H 24.993865 24 v 0.993865 0.993865 H 23.006135 22.01227 V 18.97546 17.981595 H 21 19.98773 v 0.993865 0.993865 H 18.993865 18 Z M 22.01227,15 V 13.969325 H 21 19.98773 V 15 16.030675 H 21 22.01227 Z"
     id="path4"
     transform="scale(0.5)" />
</svg>
