<?xml version="1.0" encoding="UTF-8" standalone="no"?>
<!-- Created with Inkscape (http://www.inkscape.org/) -->
<svg version="1.1" id="svg1" width="512" height="512" viewBox="0 0 512 512" sodipodi:docname="icon.svg" inkscape:version="1.4.2 (ebf0e94, 2025-05-08)" xmlns:inkscape="http://www.inkscape.org/namespaces/inkscape" xmlns:sodipodi="http://sodipodi.sourceforge.net/DTD/sodipodi-0.dtd" xmlns="http://www.w3.org/2000/svg" xmlns:svg="http://www.w3.org/2000/svg">
  <defs id="defs1" />
  <sodipodi:namedview id="namedview1" pagecolor="#ffffff" bordercolor="#000000" borderopacity="0.25" inkscape:showpageshadow="2" inkscape:pageopacity="0.0" inkscape:pagecheckerboard="0" inkscape:deskcolor="#d1d1d1" inkscape:zoom="1.4142136" inkscape:cx="398.10112" inkscape:cy="383.60543" inkscape:window-width="1920" inkscape:window-height="1017" inkscape:window-x="-8" inkscape:window-y="-8" inkscape:window-maximized="1" inkscape:current-layer="g1" />
  <g inkscape:groupmode="layer" inkscape:label="Image" id="g1">
    <g id="g2" style="fill:#000000">
      <path style="fill-opacity:1;fill:#ffffff" d="m 304.87244,426.25 c -1.24387,-1.58606 -1.2085,-1.62143 0.37756,-0.37756 1.66575,1.30637 2.19548,2.12756 1.37244,2.12756 -0.20765,0 -0.99515,-0.7875 -1.75,-1.75 z M 146,417.62244 c 0,-0.20765 0.7875,-0.99515 1.75,-1.75 1.58606,-1.24387 1.62143,-1.2085 0.37756,0.37756 C 146.82119,417.91575 146,418.44548 146,417.62244 Z m 169,-18 c 0,-0.20765 0.7875,-0.99515 1.75,-1.75 1.58606,-1.24387 1.62143,-1.2085 0.37756,0.37756 C 315.82119,399.91575 315,400.44548 315,399.62244 Z M 405.87244,387.25 c -1.24387,-1.58606 -1.2085,-1.62143 0.37756,-0.37756 1.66575,1.30637 2.19548,2.12756 1.37244,2.12756 -0.20765,0 -0.99515,-0.7875 -1.75,-1.75 z M 156,120.5 c 1.86578,-1.925 3.61733,-3.5 3.89233,-3.5 0.275,0 -1.02655,1.575 -2.89233,3.5 -1.86578,1.925 -3.61733,3.5 -3.89233,3.5 -0.275,0 1.02655,-1.575 2.89233,-3.5 z" id="path8" />
      <path id="path7" style="fill-opacity:1;fill:#000000" d="m 351.3418,212.3457 c -0.13939,0.0151 -0.23514,0.37863 -0.26368,1.07032 -0.0434,1.05416 0.19311,1.64479 0.5254,1.3125 0.33225,-0.3323 0.36879,-1.19415 0.0801,-1.91602 -0.12968,-0.32408 -0.24642,-0.47709 -0.34179,-0.4668 z m -49.72461,204.34961 v 0.002 l 0.002,0.002 0.002,-0.002 v -0.002 h -0.002 z m -0.0117,0.25 v 0.002 0.002 l 0.002,0.002 c 1e-5,-10e-4 2e-5,-0.003 0,-0.004 v -0.002 z m -0.41602,0.30469 c -0.002,0.0232 -0.002,0.0566 -0.004,0.0801 9.2e-4,-0.008 0.003,-0.0154 0.004,-0.0234 10e-4,-0.0103 0.004,-0.0212 0.004,-0.0312 v -0.002 -0.002 l -0.002,-0.002 v -0.002 -0.002 -0.002 -0.002 -0.002 c -6e-4,-0.003 -0.001,-0.007 -0.002,-0.01 z m -0.006,0.0918 c -8.3e-4,0.0121 -5.6e-4,0.0231 0,0.0352 8.7e-4,-0.0118 9.6e-4,-0.0235 0.002,-0.0352 z m -0.002,0.043 c 7e-5,0.0125 -1.8e-4,0.0246 0,0.0371 8.7e-4,-0.0123 0.001,-0.0249 0.002,-0.0371 z m 0,0.043 c -0.0121,0.17113 -0.0234,0.35556 -0.0234,0.57227 0,1.00923 0.1222,1.58202 0.29688,1.54297 -4.9e-4,-7.4e-4 -0.001,-0.003 -0.002,-0.004 h -0.002 v -0.002 -0.002 -0.002 h -0.002 -0.002 v -0.002 -0.002 h -0.002 v -0.002 h -0.002 v -0.002 -0.002 -0.002 c -0.001,-0.003 -0.003,-0.007 -0.004,-0.01 -0.005,-0.0194 -0.006,-0.0388 -0.008,-0.0586 -0.001,-0.0135 -0.007,-0.026 -0.01,-0.0391 -0.004,-0.0167 -0.005,-0.0356 -0.006,-0.0527 0,-0.0143 -0.003,-0.0267 -0.004,-0.041 -10e-4,-0.0132 -0.003,-0.0279 -0.004,-0.041 0,-0.0109 -0.002,-0.0205 -0.004,-0.0312 -10e-4,-0.01 -0.003,-0.0183 -0.006,-0.0273 -0.005,-0.0107 -0.009,-0.024 -0.0117,-0.0352 -0.004,-0.0123 -0.005,-0.0244 -0.006,-0.0371 -6.6e-4,-0.0157 1.9e-4,-0.0312 0,-0.0469 0,-0.0114 -0.003,-0.0223 -0.006,-0.0332 -0.002,-0.006 -0.002,-0.0132 -0.004,-0.0195 -8.9e-4,10e-6 -0.003,-2e-5 -0.004,0 h -0.002 -0.002 -0.002 v -0.002 h -0.002 v -0.002 -0.002 c 1.4e-4,-0.003 0.001,-0.01 0.002,-0.0156 6.1e-4,-0.005 0.001,-0.0105 0.002,-0.0156 -0.002,-0.009 -0.005,-0.0166 -0.008,-0.0254 -0.005,-0.0166 -0.0107,-0.0341 -0.0156,-0.0508 -0.002,-0.003 -0.004,-0.005 -0.006,-0.008 l -0.002,-0.002 v -0.002 c -7e-4,-0.005 -0.002,-0.0155 -0.002,-0.0156 3e-5,-9.6e-4 5e-5,-0.005 0,-0.006 -7.8e-4,-0.003 -0.001,-0.005 -0.002,-0.008 -0.001,-0.005 -0.002,-0.01 -0.002,-0.0137 v -0.002 -0.002 c 3.7e-4,-0.001 0.001,-0.005 0.002,-0.006 l 0.002,-0.002 0.002,-0.002 v -0.002 c 0.001,-0.007 0.004,-0.0108 0.008,-0.0156 -7.6e-4,-0.0186 -0.003,-0.0382 -0.006,-0.0566 v -0.002 l -0.002,-0.002 v -0.002 c -6.9e-4,-0.003 -0.001,-0.006 -0.002,-0.01 -0.005,-0.0215 -0.0104,-0.043 -0.0156,-0.0644 -0.005,-0.0193 -0.0107,-0.0389 -0.0137,-0.0586 -0.003,-0.0192 -0.007,-0.0373 -0.01,-0.0566 -0.003,-0.0184 -0.006,-0.0362 -0.008,-0.0547 -0.001,-0.011 -0.002,-0.0222 -0.004,-0.0332 -0.002,-0.0118 -0.004,-0.0235 -0.006,-0.0352 -0.004,-0.0252 -0.008,-0.0504 -0.0117,-0.0762 -0.002,-0.006 -0.004,-0.0119 -0.006,-0.0176 -0.005,-0.0198 -0.008,-0.0403 -0.01,-0.0605 -0.003,-0.0213 -0.006,-0.043 -0.008,-0.0645 -0.002,-0.0241 -0.002,-0.0481 -0.002,-0.0723 0,-0.0233 1.4e-4,-0.0451 -0.002,-0.0684 -0.002,-0.0228 -0.005,-0.0455 -0.006,-0.0684 -4e-5,-0.0237 2.2e-4,-0.0486 0,-0.0723 -7.3e-4,-0.0161 -0.002,-0.0327 -0.002,-0.0488 -0.002,-0.01 -0.003,-0.0195 -0.004,-0.0293 -0.004,-0.0265 -0.0107,-0.0536 -0.0137,-0.0801 -0.002,-0.0215 -0.005,-0.0429 -0.006,-0.0645 -5.8e-4,-0.018 -2.6e-4,-0.0347 0,-0.0527 10e-6,-0.022 -4e-5,-0.0445 0.002,-0.0664 0.001,-0.0117 0.002,-0.0236 0.004,-0.0351 -0.004,-0.0185 -0.008,-0.0361 -0.0117,-0.0547 -0.006,-0.0214 -0.009,-0.0425 -0.0117,-0.0645 -0.002,-0.0167 -0.003,-0.0341 -0.004,-0.0508 z" />
      <path style="fill-opacity:1;fill:#000000" d="m 295.3605,334 c 0,-5.225 0.16854,-7.3625 0.37454,-4.75 0.206,2.6125 0.206,6.8875 0,9.5 -0.206,2.6125 -0.37454,0.475 -0.37454,-4.75 z M 403.15789,217 c 0,-1.375 0.22698,-1.9375 0.50439,-1.25 0.27741,0.6875 0.27741,1.8125 0,2.5 -0.27741,0.6875 -0.50439,0.125 -0.50439,-1.25 z m -52,-7 c 0,-1.375 0.22698,-1.9375 0.50439,-1.25 0.27741,0.6875 0.27741,1.8125 0,2.5 -0.27741,0.6875 -0.50439,0.125 -0.50439,-1.25 z m -12.07894,-51.58333 c 0.048,-1.16495 0.28494,-1.4019 0.60416,-0.60417 0.28887,0.72187 0.25335,1.58437 -0.0789,1.91667 -0.33229,0.33229 -0.56864,-0.25834 -0.52522,-1.3125 z" id="path6" />
      <path id="path4" style="fill-opacity:1;fill:#000000" d="m 403.3418,209.3457 c -0.13939,0.0151 -0.23514,0.37863 -0.26368,1.07032 -0.0434,1.05416 0.19311,1.64479 0.5254,1.3125 0.33225,-0.3323 0.3684,-1.19415 0.0801,-1.91602 -0.12968,-0.32408 -0.24642,-0.47709 -0.34179,-0.4668 z M 153.5,310.5 l 2.42383,2.75 c 1.33338,1.5125 2.57088,2.75 2.75,2.75 0.78428,0 0.14646,-0.81028 -2.42383,-3.07617 z m 243.16602,77.19727 0.0195,0.0234 c -1.1e-4,-0.001 -10e-6,-0.005 0,-0.006 9e-5,-0.002 1.4e-4,-0.005 0,-0.008 -0.006,-0.004 -0.0135,-0.006 -0.0195,-0.01 z m 1.38867,1.63867 0.0449,0.0527 c -0.007,-0.0107 -0.0143,-0.0215 -0.0195,-0.0312 -0.009,-0.007 -0.0169,-0.0146 -0.0254,-0.0215 z m 2.68554,2.17187 v 0.002 h 0.002 v -0.002 z" />
      <path id="path3" style="fill-opacity:1;fill:#000000" d="m 321.79688,384 c -0.29404,0.0275 -1.31694,0.91719 -2.29688,2 -0.99549,1.1 -1.58555,2 -1.31055,2 0.275,0 1.31506,-0.9 2.31055,-2 0.99549,-1.1 1.58555,-2 1.31055,-2 -0.004,0 -0.009,-4.4e-4 -0.0137,0 z m 17.50585,33.49219 v 0.002 h 0.002 v -0.002 z m -62.05859,0.0684 -0.002,0.002 v 0.002 h 0.002 l 0.002,-0.002 v -0.002 z m -76.75195,8.95898 v 0.002 0.002 h 0.002 c 7e-5,-10e-4 3e-5,-0.003 0,-0.004 z m 0.16211,1.00977 v 0.002 h 0.002 v -0.002 z" />
      <path id="path2" style="fill-opacity:1;fill:#000000" d="M 0,0 V 256 512 H 256 512 V 256 0 H 256 Z m 254.72461,78.292969 c 9.9113,-0.309154 19.9477,-0.139934 25.46094,0.65039 52.61794,7.542797 96.70672,42.151411 114.72461,90.056641 19.42063,51.63475 6.26743,107.957 -34.26172,146.70312 -14.02934,13.41213 -28.17069,22.52093 -46.33008,29.8418 -9.95921,4.015 -14.1945,4.35428 -16.91406,1.35352 -1.74156,-1.92164 -1.94719,-4.34515 -2.4043,-28.25 -0.47034,-24.59711 -0.63633,-26.44501 -2.79883,-31.13672 -1.26436,-2.74315 -3.2342,-5.98282 -4.37695,-7.19922 l -2.07813,-2.21094 2.37696,-0.49218 c 1.30711,-0.27067 5.52695,-1.0368 9.37695,-1.70313 27.23108,-4.71297 44.68514,-19.24097 50.94727,-42.40625 2.28267,-8.44418 3.1384,-26.83338 1.61328,-34.67578 -1.43893,-7.39914 -5.69983,-16.8352 -10.09766,-22.36914 -2.35409,-2.96225 -2.95493,-4.52492 -2.47656,-6.4336 1.65021,-6.5843 1.7018,-19.73996 0.10156,-25.98632 -2.1683,-8.46373 -2.95735,-9.30305 -8.00977,-8.52539 -8.50193,1.30862 -23.33688,7.39453 -30.69726,12.59179 -2.4497,1.72977 -3.06514,1.75432 -9.5,0.38672 -18.47662,-3.92682 -42.15748,-3.89998 -59.26758,0.0664 l -6.38476,1.48047 -4.64454,-2.98047 c -10.46559,-6.71575 -29.15163,-13.11728 -33.46289,-11.46289 -4.06238,1.55888 -6.63318,24.06649 -3.73047,32.66406 1.19707,3.54559 1.10634,3.96531 -1.63085,7.5 -8.6868,11.21772 -11.49639,19.85642 -11.45899,35.24414 0.0516,21.24493 5.30004,36.24892 16.6582,47.63086 9.2136,9.23288 20.28314,14.31183 38.99805,17.89258 4.35297,0.83286 8.11199,1.71159 8.35352,1.95312 0.24153,0.24153 -0.74939,1.85083 -2.20117,3.57617 -1.45179,1.72534 -3.4163,5.77036 -4.36524,8.99024 -1.93172,6.55459 -2.75017,7.16923 -11.98633,8.98633 -12.52764,2.46467 -22.52583,-2.08973 -31.63867,-14.41211 -3.9795,-5.38109 -7.10864,-8.42679 -10.85156,-10.56446 -6.04162,-3.45051 -12.57352,-4.76264 -15.61524,-3.13476 -2.81278,1.50535 -1.84803,3.50835 3.45118,7.1543 6.74886,4.64334 9.9586,8.61179 15.53906,19.21289 2.8329,5.38163 6.49892,10.91834 8.14648,12.30468 9.50485,7.9978 22.51489,10.65893 37.96094,7.76563 L 224,317.8418 v 14.02148 c 0,13.3571 -0.10565,14.09727 -2.22266,15.58008 -3.18449,2.2305 -7.27919,1.88192 -15.36328,-1.30859 C 161.08101,328.24341 128.37722,289.95607 118.32031,243 c -2.74508,-12.81683 -2.49886,-42.15023 0.45899,-54.61133 3.03307,-12.77799 6.55959,-22.20387 12.89843,-34.48633 19.17744,-37.15921 54.65712,-63.638832 98.3418,-73.394528 5.00859,-1.118521 14.79378,-1.905689 24.70508,-2.214843 z M 173.64062,376.0918 c 0.8875,0.0238 1.68314,0.59608 2.74024,1.39648 1.83414,1.38878 1.83596,1.76618 0.0879,15.21875 -0.98588,7.58678 -1.83236,19.81859 -1.88086,27.18359 -0.0765,11.60643 -0.3211,13.53923 -1.83789,14.4961 -1.27317,0.80284 -2.22683,0.80335 -3.5,0.004 -2.435,-1.53007 -2.71388,-11.35474 -0.85352,-30.01367 0.81349,-8.15911 1.3109,-15.00163 1.10743,-15.20507 -0.20347,-0.20349 -4.28286,4.96144 -9.06641,11.47851 C 149.67734,415.30929 145.28645,420 142.32031,420 c -2.97957,0 -4.3667,-2.35633 -8.82812,-15 -2.03776,-5.775 -4.02362,-10.84429 -4.41407,-11.26562 -0.39035,-0.42139 -2.40763,7.90361 -4.48242,18.5 -2.07479,10.59636 -4.17258,20.27812 -4.66211,21.51562 -1.62035,4.09608 -6.93359,2.21206 -6.93359,-2.45898 0,-1.27054 1.81874,-9.74758 4.04102,-18.83594 2.22227,-9.08837 4.53729,-20.37206 5.14453,-25.07617 0.98193,-7.60674 1.37685,-8.67761 3.57617,-9.67969 3.50233,-1.59577 5.08331,0.71693 10.25976,15.00781 6.03703,16.66669 6.74331,18.29297 7.94336,18.29297 0.58706,0 6.18611,-6.8625 12.44141,-15.25 11.29026,-15.13871 14.59818,-19.51749 17.05469,-19.65625 0.0601,-0.003 0.12053,-0.004 0.17968,-0.002 z m 55.00782,0.0508 c 2.59647,-0.078 3.73836,0.34583 5.23437,1.55859 2.04234,1.65565 2.21609,2.24441 1.21485,4.11524 -1.07422,2.0072 -1.95037,2.18918 -10.88282,2.24218 -13.51598,0.0802 -17.4318,0.89961 -18.88281,3.95703 -1.08094,2.2777 -3.56842,17.08197 -2.9707,17.67969 0.24404,0.24404 13.93974,-1.79842 21.71484,-3.23828 4.40877,-0.81646 7.52839,1.54371 5.94727,4.49805 -1.16526,2.17732 -2.57688,2.56408 -16.4375,4.50976 -5.90146,0.82842 -11.14803,1.76477 -11.65821,2.08008 C 201.41755,413.86015 201,418.3963 201,423.625 c 0,5.2287 -0.46581,10.37757 -1.03516,11.44141 -1.21738,2.27469 -2.87412,2.45161 -5.43359,0.58007 -1.68607,-1.23288 -1.79422,-2.37469 -1.19922,-12.75 0.35944,-6.26771 1.35905,-15.89648 2.2207,-21.39648 0.86165,-5.5 1.5626,-12.55267 1.5586,-15.67188 -0.004,-3.22055 0.51137,-6.07785 1.1914,-6.61328 0.6586,-0.51856 5.69727,-1.23206 11.19727,-1.58593 5.5,-0.35387 12.7,-0.91784 16,-1.25196 1.25551,-0.12712 2.28295,-0.20837 3.14844,-0.23437 z m 163.00976,4.00195 c 2.671,0.134 5.24754,0.77269 7.63086,1.96875 8.74347,4.38787 12.00893,9.33533 12.13086,18.38672 0.0651,4.83356 -0.45378,6.90805 -2.66406,10.66797 -5.00098,8.50719 -17.49873,17.48833 -28.2168,20.2793 -11.2405,2.92701 -17.81163,1.79803 -21.94336,-3.77344 -1.70732,-2.30225 -2.09146,-4.25099 -2.07226,-10.5 0.0204,-6.64422 0.47452,-8.60488 3.39062,-14.61328 6.84337,-14.10023 20.16982,-22.99667 31.74414,-22.41602 z m -61.84179,0.13672 0.002,0.004 0.002,0.006 0.002,0.004 v 0.002 c 0.41992,0.0182 0.82391,0.0901 1.21679,0.21484 4.11223,1.30517 3.331,5.96505 -1.15039,6.86133 -3.51402,0.7028 -15.92405,13.07848 -18.99805,18.94531 -1.10036,2.10012 -2.25718,5.98111 -2.57031,8.625 -0.49065,4.1428 -0.24479,5.13216 1.78125,7.1582 l 2.35156,2.35156 0.75,-4.39062 c 0.92165,-5.39884 4.8379,-11.50793 9,-14.03906 2.17202,-1.32087 6.39735,-2.2831 10.36133,-2.61719 h 0.002 l 0.002,-0.002 h 0.002 0.002 0.002 0.002 0.002 v -0.002 h 0.002 0.002 0.002 0.002 c 0.004,-10e-4 0.009,-0.003 0.0137,-0.004 0.0169,-0.005 0.0336,-0.01 0.0508,-0.0137 0.0117,-0.003 0.0231,-0.006 0.0352,-0.006 0.0102,-0.004 0.0208,-0.006 0.0312,-0.008 0.0154,-0.002 0.0314,-0.005 0.0469,-0.006 0.018,-10e-4 0.0346,-0.002 0.0527,-0.002 0.0217,-5e-5 0.0447,2e-4 0.0664,0 0.0209,-10e-4 0.0416,-6.5e-4 0.0625,-0.002 0.0253,-0.001 0.051,-0.003 0.0762,-0.006 0.0228,-0.003 0.0457,-0.009 0.0684,-0.0117 0.0216,-0.002 0.0428,-0.002 0.0645,-0.002 0.0231,0 0.0453,-0.01 0.0684,-0.0117 0.0305,-0.003 0.0614,-0.004 0.0918,-0.008 0.0251,-0.004 0.0508,-0.01 0.0762,-0.0117 0.0233,-10e-4 0.047,-6.8e-4 0.0703,-0.002 0.0275,-10e-4 0.0546,-0.005 0.082,-0.008 0.0257,-0.003 0.0502,-0.006 0.0762,-0.006 0.0423,-0.002 0.0847,-0.005 0.12695,-0.008 0.0358,-0.002 0.0715,-0.003 0.10743,-0.002 h 0.10156 c 0.0259,-1e-5 0.0522,-3e-5 0.0781,0 0.0243,2e-5 0.0479,-1.2e-4 0.0723,0 0.0247,1.3e-4 0.0495,-6.1e-4 0.0742,0 0.0294,9.5e-4 0.0586,0.002 0.0879,0.004 10e-4,-5e-5 0.003,5e-5 0.004,0 0.0768,-0.003 0.15218,-0.005 0.22852,-0.008 5.6e-4,-1.2e-4 0.007,-9.5e-4 0.01,-0.002 h 0.002 0.002 0.002 0.002 c 0.0185,-0.003 0.036,-0.006 0.0547,-0.008 0.0134,-9.3e-4 0.0276,-0.002 0.041,-0.002 v -0.002 c 0.002,5e-5 0.005,1.5e-4 0.008,0 h 0.002 0.002 0.002 l 0.002,0.002 0.002,0.002 h 0.002 l 0.004,0.002 0.002,0.002 h 0.002 l 0.002,0.002 c 2.30597,-0.0626 4.36487,0.12459 5.6582,0.6211 4.24191,1.62847 7.71094,5.90864 7.71094,9.51367 0,5.34521 -4.59029,10.387 -14.14063,15.53516 -4.93779,2.66422 -6.63862,3.04492 -13.60547,3.04492 -6.62578,0 -8.52816,-0.38127 -11.33593,-2.27344 -4.19837,-2.82927 -6.69078,-6.22646 -7.47657,-10.19336 v -0.002 h -0.002 v -0.002 h -0.002 v -0.002 -0.002 -0.002 c -0.001,-0.003 -0.003,-0.007 -0.004,-0.01 -0.005,-0.0194 -0.006,-0.0388 -0.008,-0.0586 -5e-4,-0.007 -0.002,-0.0131 -0.004,-0.0195 -0.002,-0.006 -0.004,-0.013 -0.006,-0.0195 -0.003,-0.0144 -0.005,-0.0298 -0.006,-0.0449 -0.0124,-0.0666 -0.0218,-0.13423 -0.0332,-0.20117 -0.007,-0.0398 -0.015,-0.0793 -0.0215,-0.11914 v -0.002 h -0.002 v -0.002 -0.002 -0.002 c -0.004,-0.0276 -0.0109,-0.0564 -0.0156,-0.084 -0.002,-0.007 -0.006,-0.0142 -0.008,-0.0215 -0.002,-0.003 -0.006,-0.005 -0.008,-0.008 l -0.002,-0.002 v -0.002 c -7e-4,-0.005 -0.002,-0.0155 -0.002,-0.0156 3e-5,-9.6e-4 5e-5,-0.009 0,-0.01 -3.9e-4,-0.002 2.7e-4,-0.005 0,-0.006 l -0.002,-0.002 c -7.4e-4,-0.004 -0.002,-0.0105 -0.002,-0.0137 v -0.002 -0.004 l 0.002,-0.002 v -0.002 -0.002 l 0.002,-0.002 0.002,-0.002 v -0.002 -0.002 c -0.009,-0.0593 -0.0174,-0.1182 -0.0254,-0.17773 -0.003,-0.0104 -0.004,-0.0208 -0.006,-0.0312 -0.003,-0.0192 -0.007,-0.0373 -0.01,-0.0566 -0.003,-0.0184 -0.006,-0.0362 -0.008,-0.0547 -0.001,-0.011 -0.002,-0.0222 -0.004,-0.0332 -0.002,-0.0118 -0.004,-0.0235 -0.006,-0.0352 -0.006,-0.0345 -0.0116,-0.0707 -0.0156,-0.10547 v -0.002 l -0.002,-0.002 v -0.002 -0.002 -0.002 -0.002 c -0.002,-0.0127 -0.003,-0.0263 -0.004,-0.0391 -0.003,-0.0213 -0.006,-0.043 -0.008,-0.0645 -0.002,-0.0241 -0.002,-0.0481 -0.002,-0.0723 0,-0.0233 2.1e-4,-0.0451 -0.002,-0.0684 -0.002,-0.0228 -0.005,-0.0455 -0.006,-0.0684 v -0.006 c -0.004,-0.047 -0.008,-0.0953 -0.0117,-0.14257 -4.5e-4,-0.003 -0.001,-0.009 -0.002,-0.0117 -0.004,-0.023 -0.009,-0.0455 -0.0117,-0.0684 -0.002,-0.0215 -0.005,-0.0428 -0.006,-0.0645 -5.8e-4,-0.018 -2.6e-4,-0.0347 0,-0.0527 10e-6,-0.0174 -9.6e-4,-0.0353 0,-0.0527 -0.003,-0.0444 -0.006,-0.0883 -0.008,-0.13282 -0.002,-0.0123 -0.01,-0.0244 -0.0117,-0.0371 -0.002,-0.0167 -0.003,-0.0341 -0.004,-0.0508 -4.2e-4,-0.0143 8e-5,-0.0287 0,-0.043 -10e-4,-0.0145 -10e-4,-0.0286 0,-0.043 0,-0.002 6e-5,-0.007 0,-0.01 v -0.002 -0.002 c -0.002,-0.0441 -0.002,-0.0866 -0.004,-0.13086 -7.3e-4,-0.006 -8.1e-4,-0.0134 -0.002,-0.0195 v -0.002 c -2.2e-4,-0.002 3e-5,-0.005 0,-0.008 3e-5,-5e-4 3e-5,-0.007 0,-0.008 v -0.002 -0.002 c -0.22312,-7.59119 5.1605,-17.05648 16.15234,-28.4082 5.84965,-6.04116 9.55079,-8.58087 12.49024,-8.45313 z m -84.87891,1.15234 c 0.72048,-0.0118 1.60355,0.31147 2.91992,0.99219 2.56096,1.32433 4.53574,1.39962 13.43555,0.50391 5.73782,-0.57748 12.63221,-0.91096 15.32031,-0.74024 4.47614,0.28429 4.91357,0.53809 5.19922,3.01367 0.2779,2.40848 -0.64947,3.33504 -8.49609,8.5 l -8.80664,5.79688 6.80273,0.67383 c 14.02504,1.38748 19.12124,9.02106 12.73828,19.08594 -3.41086,5.37838 -8.404,8.82706 -16.9414,11.70312 -6.40957,2.15922 -19.59319,2.72242 -23.83008,1.01758 -2.95277,-1.18815 -4.05992,-5.62955 -1.9336,-7.75586 1.4741,-1.4741 2.06991,-1.45924 7.27539,0.18164 6.51045,2.05224 14.27903,1.56011 20.87891,-1.32422 4.10015,-1.79188 10.5,-8.14665 10.5,-10.42578 0,-5.20481 -10.56949,-7.75958 -21.30469,-5.15039 -11.94931,2.90429 -11.49839,-0.15513 1.64844,-11.18555 l 9.11719,-7.65039 -5.48047,0.61524 c -18.502,2.07778 -17.60992,2.08539 -19.86524,-0.16993 -2.45009,-2.45009 -2.73325,-5.35686 -0.6875,-7.05468 0.48709,-0.40425 0.94939,-0.61781 1.50977,-0.62696 z m 143.19531,5.63282 c -3.55804,-0.046 -7.53478,2.12888 -12.28125,6.65625 -11.94268,11.39138 -15.92016,27.89192 -7.53711,31.26953 6.80797,2.74299 19.04474,-1.9391 28.36133,-10.85352 7.04191,-6.73793 8.60217,-9.94453 7.41406,-15.23242 -0.50539,-2.24934 -2.15242,-5.03693 -3.94531,-7.17773 -0.0386,-0.0293 -0.0736,-0.0625 -0.10742,-0.0977 -0.0316,-0.0317 -0.0613,-0.0661 -0.0859,-0.10352 -0.0109,-0.0154 -0.0175,-0.0327 -0.0234,-0.0508 -0.14799,-0.17134 -0.29645,-0.33866 -0.44531,-0.5 l -0.002,-0.002 -0.002,-0.002 h -0.002 -0.002 c -0.008,-0.003 -0.015,-0.006 -0.0215,-0.0117 l -0.002,-0.002 c -0.006,-0.006 -0.0116,-0.0125 -0.0176,-0.0195 -0.005,-0.006 -0.0106,-0.0125 -0.0156,-0.0195 -0.006,-0.008 -0.0116,-0.0145 -0.0176,-0.0215 -0.007,-0.008 -0.0125,-0.0174 -0.0195,-0.0254 -0.006,-0.007 -0.0125,-0.0125 -0.0195,-0.0195 -0.005,-0.005 -0.0106,-0.01 -0.0156,-0.0156 -0.004,-0.005 -0.01,-0.01 -0.0137,-0.0156 l -0.002,-0.002 -0.002,-0.002 v -0.002 c -0.004,-0.006 -0.008,-0.0118 -0.0117,-0.0176 -0.0709,-0.0749 -0.14208,-0.1484 -0.21289,-0.22071 -0.009,-0.006 -0.0172,-0.0129 -0.0254,-0.0195 -0.0114,-0.01 -0.0216,-0.0193 -0.0332,-0.0293 -0.009,-0.008 -0.0184,-0.0164 -0.0254,-0.0254 v -0.002 l -0.002,-0.002 v -0.002 c -0.003,-0.004 -0.004,-0.008 -0.006,-0.0117 l -0.002,-0.002 v -0.002 c -1.46547,-1.47322 -2.88872,-2.35996 -3.74024,-2.0332 -0.7113,0.27295 -2.37869,0.003 -3.70508,-0.60156 -1.10612,-0.50399 -2.24562,-0.76592 -3.43164,-0.78125 z m -55.4414,22.82812 c -4.84724,0.33849 -10.0797,2.09524 -11.62696,4.98633 -1.86684,3.48821 -2.92047,9.99502 -1.69726,10.48047 1.79708,0.7132 8.86604,-0.50415 11.94336,-2.05664 3.88886,-1.96191 10.68945,-8.2525 10.68945,-9.88672 0,-2.78304 -4.46136,-3.86192 -9.30859,-3.52344 z" />
    </g>
    <path style="fill:#ffffff;stroke-width:0.628221" d="m 209.50548,346.85636 c -22.1363,-7.67753 -45.12714,-23.92484 -61.44972,-43.42569 -15.37994,-18.37466 -27.31353,-44.46921 -30.31,-66.2773 -1.04417,-7.5994 -1.04744,-32.18844 -0.005,-40.44614 1.95206,-15.46885 9.46247,-35.45841 19.29378,-51.35189 13.56621,-21.93141 34.02739,-40.38956 57.58916,-51.951525 12.76179,-6.262322 29.46583,-11.842032 39.72226,-13.26857 9.56413,-1.330248 30.0544,-2.042079 39.14193,-1.359788 27.38248,2.055871 56.25065,13.722859 78.35542,31.667113 6.76894,5.49491 19.31425,18.45132 24.01367,24.8006 14.56596,19.6797 23.36889,41.46807 26.55635,65.73029 0.47171,3.59052 0.62026,10.68422 0.41441,19.78896 -0.27464,12.14743 -0.55932,15.31107 -1.97589,21.95812 -5.59574,26.25727 -17.64107,48.96213 -36.16926,68.17728 -12.59194,13.0588 -25.35402,22.37417 -40.95842,29.89656 -15.73304,7.58441 -22.63129,9.17823 -25.68054,5.93339 -1.43237,-1.52424 -1.54522,-2.18784 -1.89624,-11.15092 -0.20527,-5.24162 -0.23361,-13.27599 -0.063,-17.85415 0.22489,-6.03327 0.1115,-8.32393 -0.41204,-8.32393 -0.48829,0 -0.72635,-1.78095 -0.73476,-5.49693 -0.0245,-10.83809 -2.01794,-17.86034 -6.62384,-23.33415 -0.92781,-1.10264 -1.58108,-2.09381 -1.4517,-2.20259 0.12937,-0.10879 4.19301,-0.93995 9.03031,-1.84704 10.32338,-1.93583 17.00664,-4.00316 23.68212,-7.32558 6.93168,-3.44994 10.24204,-5.84847 15.58169,-11.28979 8.79118,-8.95857 13.85444,-20.57634 15.23087,-34.94759 0.41033,-4.2842 0.96769,-7.78946 1.23857,-7.78946 0.27089,0 0.49252,-1.55484 0.49252,-3.45521 0,-1.90037 -0.2827,-3.45522 -0.62822,-3.45522 -0.3471,0 -0.62822,-1.64176 -0.62822,-3.66883 0,-7.73107 -4.21137,-19.16905 -10.36904,-28.16209 -2.60569,-3.80551 -2.89183,-4.55521 -2.55131,-6.68469 0.21094,-1.31916 0.55894,-4.07673 0.77334,-6.12793 0.21439,-2.05121 0.60867,-3.72946 0.87617,-3.72946 0.26751,0 0.48638,-1.27215 0.48638,-2.827 0,-1.55484 -0.21766,-2.82699 -0.48369,-2.82699 -0.26602,0 -0.65808,-2.06318 -0.87124,-4.58483 -0.5333,-6.30886 -2.59801,-12.75368 -4.48118,-13.98758 -1.26477,-0.82871 -2.09547,-0.86887 -5.47089,-0.26452 -8.07963,1.4466 -19.61864,6.03226 -28.1145,11.17284 l -4.65995,2.81959 -7.27625,-1.33661 c -11.02025,-2.02436 -17.53495,-2.60317 -29.3634,-2.60883 -11.27483,-0.005 -22.37166,1.11679 -30.7261,3.10723 l -4.83332,1.15154 -3.84419,-2.48858 c -10.59404,-6.85812 -29.59938,-13.49954 -33.92478,-11.85502 -3.24723,1.23459 -4.77767,6.86282 -5.21789,19.18888 -0.26343,7.37595 -0.12368,10.23044 0.64322,13.13824 1.11303,4.22021 1.10691,4.23968 -3.17572,10.10116 -3.43632,4.70316 -6.75244,11.4026 -8.08733,16.33852 -1.53595,5.67939 -1.89363,23.36782 -0.63888,31.5952 3.2828,21.52531 14.62147,36.83821 33.22627,44.87218 5.21772,2.25313 15.58987,5.18144 24.07694,6.7975 5.64924,1.07569 5.74068,1.21032 3.26588,4.80804 -1.17599,1.70959 -3.06792,5.57177 -4.20429,8.58262 -1.25212,3.31753 -2.6011,5.81867 -3.424,6.3484 -2.43039,1.56454 -9.41177,3.00465 -14.5505,3.00147 -9.44724,-0.006 -16.43653,-4.1508 -25.14726,-14.91339 -7.77994,-9.61255 -13.67465,-13.36237 -21.97804,-13.98098 -3.0647,-0.22833 -4.05838,-0.0545 -5.26263,0.92065 -2.17886,1.76434 -1.3455,3.35125 3.73961,7.12099 6.30905,4.67709 9.67437,8.81228 15.35262,18.86472 7.12016,12.60513 10.75199,15.97926 21.03128,19.53903 6.1513,2.13022 18.68931,2.52472 26.40206,0.83071 l 2.07191,-0.45507 -0.35172,13.10636 c -0.19345,7.20849 -0.55313,13.61153 -0.79931,14.22898 -1.23988,3.10983 -6.96554,3.73302 -13.49414,1.4687 z" id="path9" />
    <path style="fill:#ffffff;stroke-width:0.157055" d="m 115.82822,435.70975 c -0.30233,-0.0999 -0.90828,-0.53872 -1.34654,-0.97522 -0.94499,-0.94118 -1.3234,-1.89357 -1.3234,-3.33081 0,-1.57723 1.07683,-6.751 3.76573,-18.09292 3.04193,-12.83101 4.39113,-19.50814 5.5865,-27.64716 0.84358,-5.74384 1.32212,-6.92001 3.17626,-7.80683 2.31841,-1.10887 3.71178,-0.274 5.57137,3.33822 1.35652,2.63501 2.30758,5.0521 6.48003,16.46877 3.80109,10.40055 4.74867,12.61438 5.65285,13.20683 0.21889,0.14342 0.51162,0.20492 0.69632,0.1463 0.87138,-0.27656 5.42805,-5.95288 14.9428,-18.61448 7.03651,-9.36371 9.03428,-11.87912 11.05543,-13.91995 2.68141,-2.70752 3.5742,-2.87768 5.93113,-1.13041 2.06822,1.53323 2.07516,1.66774 0.67053,13.00865 -1.39649,11.27526 -1.88021,17.93823 -2.12077,29.21227 -0.26534,12.43514 -0.45206,13.8628 -1.93205,14.77261 -1.18377,0.72771 -2.31196,0.68587 -3.38682,-0.1256 -2.34091,-1.76729 -2.55933,-10.86878 -0.72839,-30.35253 0.29628,-3.15289 0.64492,-7.14602 0.77476,-8.87362 0.462,-6.14742 0.44463,-6.38058 -0.40371,-5.41841 -1.3484,1.52934 -4.51089,5.61977 -9.10698,11.77914 -9.03131,12.10317 -12.49801,16.11882 -15.44655,17.89251 -1.75248,1.05421 -3.38574,0.81508 -4.76878,-0.69818 -1.42669,-1.56103 -2.6677,-4.36928 -5.96744,-13.50353 -2.84332,-7.87078 -4.25332,-11.3865 -4.56662,-11.3865 -0.52688,0 -2.02945,6.21776 -4.70622,19.47484 -3.10473,15.37654 -4.14066,19.96636 -4.7544,21.0648 -0.57753,1.03366 -1.38448,1.59501 -2.36926,1.64819 -0.45435,0.0245 -1.07345,-0.0371 -1.37578,-0.13698 z" id="path10" />
    <path id="path11" style="fill:#ffffff;stroke-width:0.157055" d="m 229,376.24023 -0.004,0.002 c -1.03599,0.011 -2.41779,0.10825 -4.40625,0.29297 -3.50771,0.32585 -9.31318,0.77726 -15.23437,1.18554 -1.99559,0.13761 -3.1724,0.23216 -3.61328,0.29297 0.019,1.3e-4 0.0375,7.8e-4 0.0566,0.002 0.0477,0.002 0.0952,0.006 0.14258,0.0117 0.0604,0.009 0.12124,0.0233 0.18164,0.0312 0.04,0.006 0.079,0.006 0.11914,0.01 0.0144,0.007 0.0238,0.0102 0.0293,0.0137 l 0.002,0.002 h 0.002 v 0.002 h 0.002 v 0.002 0.002 0.002 0.002 0.002 0.002 0.002 l 0.002,0.002 h 0.11328 v -0.002 c 0.0616,0 0.0848,0.0396 0.0684,0.0684 0.0102,0.007 0.0169,0.0131 0.0215,0.0215 0.0584,2.1e-4 0.11728,0.004 0.17578,0.004 0.0429,-0.01 0.0858,-0.0202 0.12891,-0.0293 0.0551,-0.0118 0.12379,-0.0264 0.17969,-0.0371 0.0546,-0.0104 0.11041,-0.0224 0.16601,-0.0254 0.009,-5.7e-4 0.0183,1.1e-4 0.0273,0 v -0.004 c 0.0585,-7.3e-4 0.0786,0.0326 0.0645,0.0605 0.43647,-0.0873 0.87482,-0.17034 1.32031,-0.18359 0.54945,-0.0163 0.5493,0.53604 0,0.55664 -0.0581,0.002 -0.11589,0.007 -0.17383,0.0117 0.0273,0.12609 -0.0625,0.26496 -0.26757,0.30859 -0.0123,0.0172 -0.0349,0.0317 -0.0684,0.041 -0.1878,0.0524 -0.38473,0.0666 -0.57813,0.084 -0.42174,0.0294 -0.84284,0.0672 -1.26367,0.10742 -0.30618,0.0305 -0.61115,0.0542 -0.91797,0.0723 -0.0184,0.005 -0.0363,0.009 -0.0547,0.0137 0.0105,0.002 0.0207,0.004 0.0312,0.006 0.42148,0.0587 0.84908,0.0423 1.26953,-0.0176 0.0706,-0.01 0.14064,-0.0252 0.21094,-0.0371 0.14862,-0.0267 0.29506,-0.0677 0.43946,-0.11132 0.13158,-0.0397 0.17005,0.0932 0.0391,0.13281 -0.14992,0.0451 -0.3007,0.0876 -0.45508,0.11523 -0.0725,0.0122 -0.144,0.0268 -0.2168,0.0371 -0.43465,0.0617 -0.87892,0.0793 -1.31445,0.0176 -0.0939,-0.0182 -0.20991,-0.0386 -0.3125,-0.0684 -0.30333,0.0705 -0.60907,0.13453 -0.91602,0.1875 -0.19057,0.0343 -0.38341,0.0504 -0.57617,0.0664 -0.27079,0.0225 -0.41893,-0.10189 -0.43359,-0.23828 -0.086,0.0136 -0.17455,0.0262 -0.25977,0.0449 -0.0171,0.006 -0.0337,0.012 -0.0508,0.0176 -0.0201,0.007 -0.0446,0.0276 -0.0644,0.0332 l -0.002,0.002 h -0.002 -0.002 -0.002 -0.002 -0.002 -0.002 -0.002 l -0.002,-0.002 -0.002,-0.002 -0.002,-0.002 -0.002,-0.002 -0.002,-0.002 h -0.002 v -0.002 l -0.002,-0.002 -0.002,0.002 h -0.002 -0.002 -0.002 -0.002 v 0.002 l 0.002,0.002 v 0.002 c -0.004,1.2e-4 -0.009,-1e-5 -0.0117,0 h -0.002 v -0.002 h 0.002 0.002 0.002 l 0.002,-0.002 h 0.002 v -0.002 h 0.002 c -0.003,-0.01 -0.005,-0.0196 -0.008,-0.0293 -0.10056,-0.14076 -0.16563,-0.30556 -0.25,-0.45703 0.0869,-0.0414 0.17846,-0.0697 0.27149,-0.0918 0.13849,-0.0431 0.31661,-0.0966 0.34375,-0.10352 0.0849,-0.0271 0.16214,-0.0185 0.24804,-0.006 0.0316,0.005 0.056,0.0125 0.0762,0.0195 0.13832,-0.009 0.27629,-0.019 0.41406,-0.0371 0.10821,-0.0171 0.21424,-0.0398 0.32031,-0.0664 v -0.002 l 0.002,-0.002 c 0.002,-0.004 0.004,-0.01 0.006,-0.0137 0.009,-0.0135 0.0266,-0.0267 0.0527,-0.0332 0.0844,-0.0208 0.042,-0.0105 0.125,-0.0332 0.071,-0.0205 0.14378,-0.0408 0.21094,-0.0723 -4.8e-4,-0.0123 1.1e-4,-0.0217 0.006,-0.0312 -0.002,-0.0166 -0.001,-0.0343 0.008,-0.0508 -0.001,-0.0116 -0.002,-0.0242 -0.002,-0.0352 v -0.002 -0.002 l 0.002,-0.002 v -0.002 h 0.002 v -0.002 h 0.004 c 0.0123,-0.006 0.0375,-0.007 0.0508,-0.0117 h 0.002 0.002 c 0.005,-0.002 0.009,-0.005 0.0137,-0.008 0.099,-0.0369 0.20609,-0.0428 0.31054,-0.0508 0.0304,-0.002 0.0614,-0.003 0.0918,-0.004 v -0.002 l 0.002,-0.002 v -0.002 l 0.002,-0.002 0.002,-0.002 v -0.002 -0.002 -0.002 -0.002 -0.002 -0.002 h -0.002 v -0.002 c -5e-5,-5e-5 -6e-5,-0.0107 0,-0.0117 v -0.002 h -0.002 -0.002 -0.002 c -0.10478,-0.0601 -0.9607,0.0141 -2.46875,0.22461 -2.65788,0.37108 -3.79635,0.6655 -4.16797,1.07617 -0.54154,0.59838 -1.05078,3.67225 -1.05078,6.33789 0,3.07437 -0.64376,9.5599 -1.57227,15.83984 -1.87438,12.67734 -3.03008,30.09813 -2.14844,32.38282 0.34878,0.90386 1.23407,1.72985 2.51954,2.3496 1.53917,0.74212 2.59246,0.49799 3.54882,-0.82226 0.54325,-0.74993 0.73369,-1.55542 1.03516,-4.38281 0.22844,-2.14128 0.27713,-2.71884 0.15234,-2.75586 -0.0289,-0.006 -0.0679,0.0166 -0.11523,0.0527 -0.003,0.034 -0.007,0.0674 -0.01,0.10156 -0.004,0.0456 -0.005,0.0911 -0.008,0.13672 -10e-4,0.009 -9e-4,0.0183 -0.002,0.0273 v 0.008 0.002 0.002 h -0.002 c -0.0241,-0.004 -0.0473,-0.013 -0.0703,-0.0215 -0.009,0.002 -0.0183,0.004 -0.0273,0.006 h -0.002 v -0.002 h -0.002 v -0.002 -0.002 -0.002 -0.002 -0.002 -0.002 l 0.002,-0.002 c -2.3e-4,-0.0531 8.4e-4,-0.10511 0.002,-0.15821 -0.0113,0.007 -0.0227,0.0126 -0.0332,0.0176 l -0.002,0.002 v 0.002 0.002 h -0.002 l -0.002,0.002 -0.002,0.002 -0.002,0.002 h -0.002 -0.002 l -0.002,0.002 h -0.002 -0.002 -0.002 l -0.002,-0.002 h -0.002 l -0.002,-0.002 c -0.075,0.0251 -0.12934,-0.002 -0.17969,-0.082 -0.0227,-0.0366 -0.0412,-0.13359 -0.0566,-0.27343 -0.009,0.042 -0.0217,0.0871 -0.0332,0.10351 l -0.002,0.002 c -0.0296,0.0329 -0.0542,0.0508 -0.0762,0.0488 -0.0157,-0.003 -0.0323,-0.0164 -0.0469,-0.041 -0.0122,-0.0209 -0.0205,-0.11611 -0.0215,-0.12891 -0.0187,-0.25731 -0.0284,-0.51342 -0.0254,-0.77148 3e-4,-0.01 0.002,-0.0306 0.002,-0.0547 -0.007,-0.009 -0.0136,-0.0221 -0.0195,-0.0391 h -0.002 c -0.002,-0.0165 0.0153,-0.0591 0.0254,-0.084 8.6e-4,-0.0151 6.3e-4,-0.0289 0.002,-0.0371 0.004,-0.0275 -4.6e-4,-0.0629 0.0215,-0.0801 0.0451,-0.0354 0.0724,-0.0262 0.0918,-0.002 h 0.002 v 0.002 l 0.002,0.002 0.002,0.002 0.002,0.002 v 0.002 h 0.002 v 0.002 h 0.002 v 0.002 c 0.0112,0.02 0.0175,0.0445 0.0234,0.0645 -1.5e-4,-0.013 1.4e-4,-0.026 0,-0.0391 -0.003,-0.002 -0.006,-0.004 -0.01,-0.006 v -0.002 -0.002 -0.002 -0.002 -0.002 -0.002 -0.002 -0.002 -0.002 c 10e-4,-0.0159 0.003,-0.0312 0.006,-0.0469 7.6e-4,-0.003 0.001,-0.006 0.002,-0.01 -1.3e-4,-0.0198 8e-5,-0.0407 0,-0.0605 v -0.002 c -0.007,-0.0688 -0.0151,-0.13843 -0.002,-0.20703 9e-4,-0.005 0.001,-0.008 0.002,-0.0117 7.3e-4,-0.11504 0.003,-0.22866 0.006,-0.33789 -0.002,-0.0294 -0.002,-0.0585 -0.004,-0.0879 -0.01,-0.19826 -0.0204,-0.39722 -0.0234,-0.59571 -2e-4,-0.0753 2.1e-4,-0.15021 0.0137,-0.22461 0.008,-0.0421 0.0115,-0.0508 0.0234,-0.0918 0.0172,-0.0547 0.0362,-0.10851 0.0566,-0.16211 0.004,-0.0105 0.007,-0.0211 0.0117,-0.0312 0.005,-0.01 0.0106,-0.0181 0.0156,-0.0274 0.0314,0.006 0.0718,-0.006 0.0957,0.0156 v 0.002 l 0.002,0.002 c 0.0102,0.0199 0.013,0.076 0.0137,0.12109 0.0149,-0.0104 0.0298,-0.0183 0.0449,-0.0234 v -0.002 -0.002 h 0.002 v -0.002 h 0.002 0.002 0.002 c 10e-4,4e-4 0.002,9.6e-4 0.004,0.002 0.0102,-0.003 0.0212,-0.004 0.0312,-0.004 6.1e-4,-0.009 9e-4,-0.0185 0.002,-0.0273 l 0.002,-0.002 c 0.007,-0.097 0.10455,-0.0912 0.0977,0.006 -0.001,0.019 -0.002,0.0376 -0.004,0.0566 0.0165,0.0122 0.0327,0.0264 0.0488,0.0449 h 0.002 0.002 0.002 0.002 0.002 c 5e-4,1.3e-4 0.005,0.001 0.006,0.002 5e-4,2.7e-4 0.005,0.001 0.006,0.002 v 0.002 c 9.8e-4,8.9e-4 0.005,0.005 0.006,0.006 l 0.002,0.002 h 0.002 v 0.002 l 0.002,0.002 v 0.002 c 0.003,0.008 0.008,0.0219 0.008,0.0332 0.0123,0.0184 0.0212,0.0383 0.0332,0.0605 l 0.002,0.002 0.008,0.006 0.002,0.002 0.002,0.002 v 0.002 h 0.002 v 0.002 0.002 0.002 h 0.002 0.002 0.002 v 0.002 0.002 0.002 0.002 l -0.002,0.002 v 0.002 0.002 c 0.002,0.003 0.004,0.007 0.006,0.01 0.0432,0.0279 0.0439,0.0762 0.0508,0.1211 v 0.002 l 0.002,0.002 v 0.004 0.002 c 0.007,0.0197 0.0163,0.0394 0.0234,0.0605 0.005,0.0138 0.009,0.0228 0.0137,0.0293 l 0.002,0.004 v 0.002 l 0.004,0.002 0.002,0.006 h 0.002 0.002 l 0.002,0.002 h 0.002 l 0.002,-0.002 h 0.002 0.002 v -0.006 l 0.004,-0.002 c 0.0812,-0.11498 0.14875,-1.45567 0.20703,-4.15821 0.0936,-4.34376 0.25006,-6.36319 0.5918,-7.65234 0.13089,-0.49378 0.24645,-0.60688 0.74023,-0.73828 1.52512,-0.40587 6.2537,-1.17972 15.89649,-2.59961 4.52378,-0.66608 8.11382,-1.36272 9.28906,-1.80274 1.11215,-0.4164 1.94196,-1.12309 2.41601,-2.05859 0.91011,-1.796 0.21529,-3.27287 -1.91601,-4.07031 -1.4137,-0.52893 -2.62475,-0.44482 -8.84766,0.60742 -6.38117,1.079 -13.76644,2.17113 -15.66601,2.31836 l -1.29493,0.10156 v -0.8789 c 0,-1.86487 1.17108,-9.3814 2.125,-13.63868 0.59567,-2.65846 1.20118,-4.10595 2.00196,-4.7832 1.84488,-1.56031 5.25291,-2.20413 12.59961,-2.37695 2.33227,-0.0549 4.0689,-0.14167 3.85937,-0.19336 -0.10604,-0.0262 -0.19192,-0.0557 -0.25976,-0.0899 -0.003,-6.4e-4 -0.005,-0.003 -0.008,-0.004 -0.0896,-0.0256 -0.17646,-0.0554 -0.25976,-0.0977 -0.0193,-0.01 -0.0395,-0.0179 -0.0566,-0.0312 -0.0221,-0.0172 -0.0406,-0.0389 -0.0606,-0.0586 0.008,-0.0465 0.002,-0.0986 0.0234,-0.14063 l 0.002,-0.002 0.002,-0.002 0.002,-0.002 c 0.008,-0.007 0.0229,-0.0144 0.0351,-0.0176 0.0104,-0.005 0.0231,-0.0105 0.0371,-0.0176 h 0.002 0.002 v -0.002 h 0.002 c -0.0243,-0.0381 -0.0443,-0.0775 -0.0449,-0.12109 v -0.002 -0.002 -0.002 l 0.002,-0.002 v -0.002 l 0.002,-0.002 0.002,-0.002 h 0.002 l 0.002,-0.002 c 0.0173,-0.008 0.0489,-0.0128 0.0664,-0.0195 -0.006,-0.0595 0.0207,-0.0704 0.0645,-0.10546 0.11647,-0.0509 0.24422,-0.0701 0.36718,-0.0996 0.16095,-0.0333 0.32119,-0.0729 0.48438,-0.0937 0.10087,-0.009 0.20349,-0.007 0.30468,-0.004 0.0157,4e-4 0.0312,-4.5e-4 0.0469,0 0.17125,-0.0273 0.34179,-0.0501 0.51367,-0.0723 0.31756,-0.0387 0.63787,-0.0666 0.95703,-0.0879 0.0159,-3.4e-4 0.0503,-0.006 0.0879,-0.006 0.047,-2e-5 0.0988,0.007 0.12305,0.0332 0.006,0.008 0.0129,0.0211 0.0137,0.0332 0.01,0.15897 -0.12035,0.16811 -0.22265,0.19531 h -0.002 l -0.002,0.002 c -0.004,0.001 -0.0101,0.003 -0.0137,0.004 10e-4,0.0102 0.005,0.0213 0.006,0.0312 v 0.002 0.002 l -0.002,0.002 v 0.002 0.002 h -0.004 l -0.002,0.002 v 0.002 h -0.002 c -0.0134,0.007 -0.0398,0.0101 -0.0547,0.0156 h -0.002 v 0.002 0.002 h 0.002 v 0.002 0.002 0.002 0.002 l -0.002,0.002 v 0.002 0.002 0.004 0.002 0.002 h -0.002 l -0.002,0.002 v 0.002 l -0.002,0.002 -0.002,0.002 h -0.002 -0.002 c -0.0182,0.007 -0.0538,0.006 -0.0879,0 -0.0325,0.009 -0.066,0.0175 -0.0976,0.0254 l 0.002,0.002 h 0.002 l 0.002,0.002 0.002,0.002 v 0.002 h -0.002 c -0.002,-2.5e-4 -0.005,-9.1e-4 -0.008,-0.002 -0.004,-3.8e-4 -0.0126,4.8e-4 -0.0215,0 -0.0158,0.004 -0.0308,0.008 -0.0449,0.0117 -0.0244,0.005 -0.0478,0.0104 -0.0723,0.0156 0.0384,0.0157 0.0758,0.031 0.11328,0.0488 0.0411,0.0208 0.073,0.0357 0.10938,0.0645 0.0304,0.0241 0.0497,0.0547 0.0762,0.082 0.0271,0.0283 0.053,0.0557 0.0801,0.084 0.028,0.004 0.0577,0.007 0.084,0.0176 0.0344,0.0133 0.0843,0.0215 0.0957,0.0566 0.0161,0.0497 -0.003,0.108 -0.0273,0.1543 l -0.002,0.002 -0.002,0.002 -0.002,0.004 -0.002,0.002 h -0.002 c -0.007,0.004 -0.0178,0.007 -0.0273,0.008 -7e-4,0.006 -0.002,0.012 -0.004,0.0176 -0.0104,0.0324 -0.0303,0.0583 -0.0547,0.0781 0.32372,0.0444 0.97431,0.0435 2.27539,0.043 5.42591,-0.003 6.80391,-0.41846 7.7793,-2.35352 0.73903,-1.46615 0.66431,-1.95898 -0.45704,-3.04883 -1.04312,-1.0138 -2.29,-1.78633 -3.32031,-2.05468 -0.60379,-0.15728 -1.29408,-0.23168 -2.33008,-0.22071 z m -22.44141,2.63086 c -0.062,0.0198 -0.13192,0.0395 -0.20507,0.0566 0.18657,-0.0173 0.3739,-0.0335 0.56054,-0.0488 -0.11856,-0.002 -0.2369,-0.006 -0.35547,-0.008 z m 18.56446,4.16407 c 0.0114,0.003 0.0255,0.004 0.0312,0.004 v -0.002 c -0.004,-10e-4 -0.0147,-0.002 -0.0312,-0.002 z m -0.34571,0.19922 h 0.002 0.002 0.002 v 0.002 h -0.002 -0.002 -0.002 z m -24.52734,42.28515 -0.002,0.002 h -0.002 v 0.002 0.002 c -0.002,0.005 -0.003,0.009 -0.004,0.0137 0.002,-0.004 0.005,-0.008 0.008,-0.0117 1.2e-4,-0.002 3e-5,-0.005 0,-0.008 z m -0.16406,1.88086 c -2.6e-4,0.0185 3.4e-4,0.0362 0,0.0547 -0.003,0.23697 0.005,0.47458 0.0215,0.71094 0.002,-0.009 0.004,-0.0168 0.006,-0.0254 0.018,-0.10777 0.0329,-0.21558 0.0449,-0.32421 -0.003,-0.0537 -0.006,-0.10904 -0.008,-0.16602 -0.0215,-0.0831 -0.043,-0.16708 -0.0644,-0.25 z" />
    <path id="path12" style="fill:#ffffff;stroke-width:0.0785276" d="m 244.83398,381.49609 c -0.52252,0.0261 -0.94862,0.24921 -1.43945,0.66016 -1.60117,1.34058 -1.68119,3.5899 -0.20703,5.76953 0.41013,0.6064 1.77433,2.01288 2.24219,2.31055 0.37732,0.24007 0.98875,0.43615 1.55859,0.50195 0.28214,0.0326 0.33399,0.0187 0.33399,-0.0996 0,-0.214 0.71991,-0.49285 1.375,-0.53125 0.649,-0.038 1.0816,0.13079 1.125,0.4375 0.0256,0.18113 0.0375,0.18371 0.66796,0.13281 1.74645,-0.14091 5.28117,-0.51399 11.63477,-1.22656 3.84393,-0.4311 7.0753,-0.77382 7.17969,-0.76172 0.15406,0.0178 -0.71952,0.78238 -4.63477,4.06446 -7.45707,6.25111 -9.13895,7.73204 -11.30273,9.94531 -2.21658,2.26729 -3.20985,3.70188 -3.21485,4.64062 -0.003,0.47038 0.33705,0.8431 0.92383,1.01368 0.35533,0.1032 0.67607,0.11979 1.69922,0.0859 1.49811,-0.0495 2.43044,-0.19892 5.50195,-0.88086 3.94871,-0.87669 5.63459,-1.08484 8.83399,-1.08984 2.26031,-0.003 3.5116,0.10035 5.26172,0.43164 4.41386,0.83553 7.23596,2.7606 7.61718,5.19922 0.13358,0.85446 -0.0834,1.52277 -0.87109,2.69141 -0.5361,0.79532 -1.25714,1.67849 -2.0625,2.52148 -0.38302,0.40092 -0.67905,0.72852 -0.65625,0.72852 0.0228,0 0.37083,-0.2465 0.77344,-0.54883 0.0846,-0.0635 0.16156,-0.12087 0.23047,-0.17188 l 0.002,-0.002 c 0.12541,-0.10803 0.24974,-0.21636 0.37695,-0.32227 0.0684,-0.0536 0.13604,-0.10989 0.21094,-0.15429 l 0.002,-0.004 c 0.0111,-0.007 0.0205,-0.0106 0.0293,-0.0117 0.007,-1.3e-4 0.0166,0.002 0.0215,0.004 h 0.002 l 0.002,0.002 h 0.002 l 0.002,0.002 0.002,0.002 0.002,0.002 v 0.002 l 0.002,0.002 v 0.002 l 0.002,0.002 v 0.002 c 4.1e-4,0.005 7.7e-4,0.0134 0,0.0176 0.008,0.002 0.0197,0.002 0.0273,0.004 0.001,4.6e-4 0.003,0.001 0.004,0.002 l 0.002,0.002 0.002,0.002 0.002,0.002 c 0.004,0.003 0.007,0.006 0.01,0.01 0.0197,0.0328 0.003,0.0905 -0.008,0.12109 -0.01,0.0258 -0.0135,0.0353 -0.0254,0.0605 -0.0218,0.0461 -0.0485,0.0882 -0.0762,0.13086 -0.002,0.003 -0.004,0.007 -0.006,0.01 -0.015,0.0355 -0.0352,0.0693 -0.0566,0.10157 -0.0445,0.0679 -0.0905,0.13437 -0.13672,0.20117 -0.0164,0.0226 -0.032,0.0442 -0.0488,0.0664 0.0308,0.0383 0.056,0.0828 0.0801,0.12305 l 0.002,0.002 v 0.002 l 0.002,0.002 v 0.004 0.002 0.002 l -0.002,0.002 v 0.002 l -0.002,0.002 c -0.0104,0.0147 -0.035,0.0324 -0.0449,0.0469 -0.12932,0.13876 -0.26531,0.27123 -0.4043,0.40039 9.2e-4,0.0305 0.005,0.0616 0.004,0.0918 0.0684,-0.0331 0.13805,-0.0643 0.20898,-0.0918 0.28851,-0.11167 0.35952,0.17864 0.0762,0.30273 -0.23654,0.10358 -0.45878,0.23638 -0.67969,0.36914 -0.10148,0.0623 -0.20183,0.12628 -0.30274,0.18946 -0.0139,0.0127 -0.0271,0.0245 -0.041,0.0371 -0.23235,0.19594 -0.46669,0.39421 -0.72461,0.55664 -0.003,0.002 -0.007,0.005 -0.01,0.008 -0.0167,0.0132 -0.0335,0.0314 -0.0508,0.0449 -0.037,0.0354 -0.0701,0.0673 -0.10156,0.0957 -0.002,0.003 -0.006,0.007 -0.008,0.01 -0.0393,0.0506 -0.0879,0.0924 -0.13868,0.13086 -0.0412,0.032 -0.0883,0.0549 -0.13476,0.0781 -0.0317,0.015 -0.0646,0.0295 -0.0977,0.041 -0.0254,0.008 -0.0547,0.016 -0.0781,-0.004 -0.0331,0.0116 -0.0697,0.0242 -0.0937,0.0293 -0.0185,0.003 -0.0378,0.004 -0.0566,0.006 -0.003,-0.006 -0.007,-0.0132 -0.01,-0.0195 -0.002,3.2e-4 -0.004,0.002 -0.006,0.002 -0.0157,-0.0125 -0.0371,-0.0208 -0.0488,-0.0371 v -0.002 l -0.002,-0.002 c -4e-5,-8.6e-4 -3e-5,-0.005 0,-0.006 -0.0528,1e-5 -0.1032,-0.018 -0.14648,-0.0645 -0.036,-0.0391 -0.0215,-0.1057 -0.0312,-0.1582 0.0106,-0.0212 0.0199,-0.0418 0.0312,-0.0625 -0.01,-0.004 -0.0195,-0.009 -0.0274,-0.0156 l -0.002,-0.002 -0.002,-0.002 -0.002,-0.002 v -0.002 l -0.002,-0.002 v -0.002 l -0.002,-0.002 v -0.002 -0.002 c -0.005,-0.0338 0.0256,-0.0919 0.0371,-0.11328 0.0333,-0.0561 0.0761,-0.10601 0.11523,-0.15821 v -0.002 h 0.002 l 0.002,-0.002 0.002,-0.002 v -0.002 l 0.002,-0.002 c 0.007,-0.0102 0.0154,-0.0204 0.0234,-0.0293 0.0243,-0.0316 0.0475,-0.0623 0.0742,-0.0918 0.007,-0.007 0.0145,-0.0146 0.0215,-0.0215 0.008,-0.0121 0.012,-0.0229 0.0137,-0.0293 l 0.002,-0.002 v -0.002 -0.002 h -0.002 v -0.002 h -0.002 v -0.002 h -0.002 -0.002 -0.002 c -0.0538,0.0117 -0.29092,0.19182 -0.64062,0.49609 -3.16672,2.75533 -6.09978,4.20344 -10.50195,5.18945 -2.71349,0.60777 -4.56416,0.78733 -7.57618,0.73243 -3.45665,-0.063 -4.99675,-0.31884 -8.63672,-1.42969 -4.27438,-1.30444 -5.06652,-1.31051 -6.32031,-0.0566 -0.85788,0.85788 -1.21203,1.73983 -1.20703,3.00195 0.005,1.23108 0.38036,2.31553 1.16797,3.36328 0.86122,1.14567 2.03379,1.6888 4.43555,2.05469 0.95494,0.14548 2.61478,0.2981 3.72851,0.3418 5.19789,0.20412 12.08964,-0.48805 16.2168,-1.62696 2.07291,-0.57203 5.33931,-1.83645 7.5332,-2.91797 1.98821,-0.98013 3.39091,-1.8246 4.93164,-2.9707 0.54234,-0.40344 0.64549,-0.51815 0.64649,-0.70508 0.001,-0.16492 0.12917,-0.35258 0.48828,-0.72656 0.49837,-0.51899 1.9091,-1.67565 2.38476,-1.95508 0.29165,-0.17133 1.05513,-1.10984 1.75977,-2.16015 4.06939,-6.06565 4.15851,-11.30681 0.25391,-15.01172 -2.26625,-2.15035 -5.78864,-3.61966 -10.42579,-4.34571 -0.65358,-0.10233 -2.9,-0.35196 -4.99023,-0.55664 -2.09023,-0.20467 -3.82893,-0.39868 -3.86523,-0.42968 -0.0363,-0.031 0.78576,-0.61578 1.82812,-1.30079 5.98585,-3.9336 11.18068,-7.41522 12.17578,-8.16015 1.46854,-1.09934 2.56297,-2.17644 2.91016,-2.86328 0.33043,-0.65368 0.39249,-1.45089 0.19726,-2.53516 -0.18888,-1.04899 -0.44365,-1.46536 -1.08398,-1.77539 -0.95557,-0.46267 -2.90744,-0.67026 -6.18555,-0.66016 -3.79769,0.0117 -7.5561,0.23743 -14.05664,0.84766 -4.53581,0.42575 -5.10362,0.46284 -7.18359,0.46484 -2.72663,0.002 -3.40821,-0.13692 -5.49805,-1.13086 -1.3379,-0.6363 -2.16997,-0.92806 -2.8418,-0.89453 z m 33.20704,35.41993 v 0.002 0.002 l 0.002,0.002 v 0.002 0.002 l 0.002,0.002 c 4e-4,-0.003 2.6e-4,-0.006 0,-0.01 l -0.002,-0.002 z m -0.002,0.0312 c -0.01,0.007 -0.0182,0.0139 -0.0273,0.0215 0.002,0.003 0.004,0.006 0.006,0.01 0.003,7e-4 0.009,7.6e-4 0.0117,0.002 l 0.002,-0.002 v -0.002 c 0.003,-0.009 0.005,-0.019 0.008,-0.0293 z" />
    <path id="path13" style="fill:#ffffff;stroke-width:0.0785276" d="m 391.08594,380.21289 c -1.03809,-0.0231 -2.09213,-0.008 -2.70508,0.0547 -10.09361,1.02417 -20.38749,8.41193 -26.75781,19.20312 -0.7282,1.23355 -2.44402,4.67722 -3.10352,6.23047 -1.63335,3.84685 -2.04562,6.59753 -1.9375,12.92969 0.0627,3.67371 0.23918,5.21649 0.76367,6.66602 0.70435,1.94655 2.62673,4.24588 4.61524,5.51953 1.81211,1.16066 4.03959,1.87898 6.49023,2.09179 0.72741,0.0632 3.13333,0.0452 4.00586,-0.0293 4.16866,-0.35604 9.34588,-1.62385 13.26953,-3.25 2.65108,-1.09874 5.91701,-2.83595 8.69532,-4.62696 5.82652,-3.75606 11.07905,-8.74422 13.86328,-13.16601 1.91835,-3.04665 2.74524,-5.26387 3.00195,-8.04688 0.10346,-1.11813 0.10193,-4.05293 -0.002,-5.34765 -0.57853,-7.22052 -3.51778,-11.58094 -10.40235,-15.42969 -2.62181,-1.4657 -4.71001,-2.22867 -7.18945,-2.62695 -0.54781,-0.088 -1.56933,-0.14881 -2.60742,-0.17188 z m -2.60742,6.83984 c 1.06273,0.0596 1.90112,0.26428 3.16406,0.77344 1.23826,0.49921 2.28571,0.72284 3.03711,0.64844 1.15031,-0.1139 1.53666,-0.0853 2.00195,0.15234 0.23755,0.12131 0.65389,0.37699 0.92383,0.56836 0.24463,0.17344 0.44821,0.30212 0.48437,0.30469 h 0.002 l 0.002,-0.002 h 0.002 v -0.002 c 0,-0.0196 -0.23135,-0.30762 -0.52929,-0.66601 h -0.002 c -0.062,0.0106 -0.16417,0.0322 -0.23047,0.0332 -0.0238,0 -0.0466,-0.006 -0.0703,-0.008 -0.0235,-0.0218 -0.0653,-0.0327 -0.0703,-0.0645 -0.0161,-0.10913 0.0999,-0.15441 0.17187,-0.19141 0.002,-0.001 0.004,-0.003 0.006,-0.004 -0.0401,-0.0477 -0.0803,-0.0943 -0.12109,-0.14258 -0.0342,-0.006 -0.073,-0.0139 -0.0996,-0.0312 -0.0704,-0.046 -0.0804,-0.0979 -0.0645,-0.16211 -0.0126,-0.0148 -0.0246,-0.0302 -0.0371,-0.0449 -0.0579,-0.0225 -0.1163,-0.0479 -0.16016,-0.0918 -0.0189,-0.0217 -0.0363,-0.045 -0.0527,-0.0684 -0.0246,-0.003 -0.0464,-0.006 -0.0605,-0.01 -0.019,-0.005 -0.0367,-0.0154 -0.0547,-0.0234 10e-4,-0.0485 -0.0177,-0.10308 0.004,-0.14648 v -0.002 -0.002 h 0.002 v -0.002 c -0.007,-0.0159 -0.014,-0.0325 -0.0195,-0.0488 -0.0464,-0.053 -0.0899,-0.10243 -0.13086,-0.14843 -0.018,-0.0202 -0.0336,-0.0405 -0.0469,-0.0586 -0.0338,-0.0199 -0.0675,-0.0394 -0.10157,-0.0586 -0.14893,-0.0839 -0.11932,-0.22268 -0.01,-0.22852 0.0309,-0.002 0.0675,0.008 0.10937,0.0312 0.0894,0.0497 0.17646,0.10121 0.26368,0.1543 0.007,-0.001 0.0144,-0.002 0.0215,-0.002 0.0204,-7.6e-4 0.0413,0.005 0.0625,0.0117 0.0525,0.0243 0.0978,0.058 0.14453,0.0918 0.0506,0.0352 0.0972,0.0732 0.14844,0.10742 0.003,0.002 0.006,0.004 0.01,0.006 0.008,-0.002 0.0171,-0.002 0.0254,-0.004 0.006,0 0.0773,-0.008 0.0977,-0.004 h 0.002 0.002 v 0.002 c 0.024,0.0578 0.0404,0.0885 0.0449,0.10742 0.0423,0.0282 0.0844,0.0555 0.12891,0.0801 0.0284,0.0173 0.0571,0.0353 0.084,0.0547 0.13462,0.0186 0.26927,0.0467 0.39648,0.0957 0.0545,0.0209 0.11747,0.051 0.16407,0.0879 0.0209,0.0166 0.0397,0.0378 0.0586,0.0566 0.0124,0.0251 0.0281,0.0476 0.0371,0.0742 0.0338,0.10504 -0.006,0.22062 -0.0391,0.32032 -0.004,0.0131 -0.007,0.0258 -0.0117,0.0391 0.0101,0.01 0.0189,0.0196 0.0293,0.0293 0.0268,0.025 0.0529,0.0497 0.0801,0.0742 0.0889,0.0799 0.14694,0.12814 0.24024,0.20704 0.2011,0.16661 0.40451,0.33019 0.59961,0.5039 0.11249,0.10015 0.14889,0.13628 0.25586,0.23828 0.17942,0.16888 0.33221,0.36026 0.48242,0.55469 0.0812,0.10604 0.16775,0.20809 0.25781,0.30664 0.0176,0.0143 0.0357,0.0281 0.0527,0.043 0.0393,0.0348 0.0783,0.0681 0.11523,0.10547 0.0375,0.0366 0.0751,0.0735 0.11523,0.10742 0.0279,0.0241 0.0552,0.0489 0.082,0.0742 0.0273,0.0268 0.053,0.0558 0.0742,0.0879 0.0322,0.0476 0.0629,0.0954 0.0957,0.14258 9.5e-4,0.001 0.001,0.003 0.002,0.004 0.0409,0.0446 0.0831,0.0894 0.125,0.13282 0.0791,0.082 0.16335,0.15837 0.24805,0.23437 0.0195,0.0185 0.0605,0.0512 0.0566,0.0859 l -0.002,0.002 c 0.0982,0.0776 0.19782,0.15557 0.30079,0.22657 v -0.002 c 0.12731,0.0879 0.0592,0.22513 -0.0703,0.14063 -0.10202,-0.0665 -0.1977,-0.14104 -0.29297,-0.2168 6.1e-4,0.007 7.1e-4,0.0143 0.002,0.0215 10e-4,0.0185 0.002,0.0363 0,0.0547 -0.003,0.0146 -0.009,0.0289 -0.0137,0.043 v 0.002 l -0.002,0.002 -0.002,0.002 v 0.002 c 0.004,0.006 0.007,0.0125 0.008,0.0176 v 0.002 0.002 l -0.002,0.002 v 0.002 0.002 0.002 h -0.002 v 0.002 l -0.002,0.002 -0.002,0.002 c 0.0193,0.0769 -0.0258,0.11618 -0.082,0.14453 0.0395,0.0227 0.0779,0.0462 0.11914,0.0664 0.008,0.003 0.0203,0.01 0.0293,0.0117 0.0111,0.002 0.022,-5.8e-4 0.0332,0 l -0.002,0.002 c 10e-4,6e-5 0.004,5e-5 0.006,0 h 0.002 0.002 l 0.002,0.002 h 0.002 l 0.002,0.002 h 0.002 l 0.002,0.002 h 0.002 l 0.002,0.002 0.002,0.002 v 0.002 l 0.002,0.002 v 0.002 l 0.002,0.002 v 0.002 0.002 0.002 l -0.002,0.002 v 0.002 l -0.002,0.002 v 0.002 h -0.002 l -0.002,0.002 -0.002,0.002 h -0.002 l -0.002,0.002 c -0.004,9.6e-4 -0.0108,0.002 -0.0156,0.002 -0.0123,-3.7e-4 -0.0249,1e-4 -0.0371,-0.002 -0.0166,-0.003 -0.0232,-0.006 -0.0391,-0.0117 -0.0524,-0.0251 -0.10134,-0.0562 -0.15234,-0.084 -0.004,0.002 -0.009,0.004 -0.0137,0.006 -0.0409,0.012 -0.0813,0.0296 -0.125,0.008 -0.005,-0.003 -0.0109,-0.005 -0.0156,-0.008 -4.7e-4,-2.8e-4 -0.001,2.9e-4 -0.002,0 -0.008,-7.7e-4 -0.0213,-0.002 -0.0293,-0.004 h -0.002 c -2.3e-4,-1.7e-4 -0.005,-0.001 -0.006,-0.002 v -0.002 c -0.0714,0.0175 -0.1247,0.0354 -0.14062,0.0469 l -0.002,0.002 h -0.002 v 0.002 l -0.002,0.002 c 0,0.0139 0.18301,0.26672 0.40625,0.56054 1.42297,1.8729 2.64953,4.19953 3.0957,5.875 0.42466,1.5947 0.55182,3.67381 0.30469,4.97657 -0.54049,2.84925 -2.46654,5.63607 -6.84961,9.91015 -4.13548,4.03264 -8.07587,6.8683 -12.70117,9.14063 -3.69292,1.81426 -7.19252,2.87968 -10.44336,3.17968 -2.4991,0.23062 -4.80876,-0.10215 -6.51758,-0.9375 -2.12624,-1.03941 -3.40974,-2.9639 -3.84961,-5.77343 -0.18418,-1.17638 -0.13052,-3.66913 0.10937,-5.02735 1.23156,-6.97301 5.66094,-14.57369 11.94532,-20.49804 4.84562,-4.56802 8.86352,-6.64838 12.44922,-6.44727 z m 9.05468,1.08399 c 0.03,0.0403 0.0583,0.0828 0.0859,0.125 0.0122,0.002 0.0225,0.003 0.0312,0.004 h 0.002 0.002 0.002 c -0.0255,-0.0298 -0.0528,-0.0596 -0.0801,-0.0879 -0.0139,-0.0145 -0.0279,-0.0282 -0.043,-0.041 z m 0.24024,0.0293 c 0.0428,0.0501 0.0829,0.10279 0.11914,0.1582 0.0121,0.005 0.0255,0.0107 0.0371,0.0176 0.0525,0.0311 0.0577,0.0436 0.0976,0.0879 0.009,0.0134 0.0179,0.028 0.0274,0.043 0.0149,-0.0526 0.0247,-0.10654 0.0117,-0.16016 -0.01,-0.0112 -0.0179,-0.0232 -0.0293,-0.0332 -0.0362,-0.0305 -0.0862,-0.0536 -0.12891,-0.0703 -0.0437,-0.0171 -0.0895,-0.0309 -0.13476,-0.043 z m 0.043,0.36328 c -0.007,6e-4 -0.0145,8.5e-4 -0.0215,0.002 0.0333,0.0281 0.0677,0.0574 0.10156,0.0859 0.003,-5.4e-4 0.006,-0.001 0.01,-0.002 -0.0198,-0.0292 -0.0386,-0.0569 -0.0586,-0.0859 -0.0105,-7.1e-4 -0.0209,-9e-4 -0.0312,0 z m 1.04882,0.91406 c 0.0689,0.0597 0.13672,0.11987 0.20313,0.17773 v -0.002 c -0.0162,-0.0147 -0.0342,-0.0306 -0.0547,-0.0488 -0.0489,-0.0435 -0.0987,-0.0847 -0.14844,-0.12695 z" />
    <path id="path1" style="fill:#ffffff;stroke-width:0.0785276" d="m 329.57422,380.34375 0.002,0.002 0.002,0.002 c -1.17916,0 -2.70177,0.53218 -4.21874,1.47461 -1.50325,0.93388 -3.52208,2.57954 -4.08008,3.32421 -0.84426,1.12669 -2.72723,2.89844 -3.08008,2.89844 -0.13173,0 -2.36553,2.31415 -4.16797,4.31836 -7.96705,8.85891 -12.41349,16.97424 -12.77344,23.3125 -0.0334,0.58831 -0.0394,0.79543 0,0.83399 4.6e-4,3.4e-4 0.003,0.003 0.004,0.004 h 0.002 0.002 l 0.002,0.002 0.002,0.002 c 9.7e-4,6e-5 0.005,5e-5 0.006,0 h 0.002 0.002 0.002 l 0.002,-0.002 c 0.0155,-0.0314 0.0354,-0.0606 0.0625,-0.084 0.0296,-0.0245 0.0598,-0.0457 0.0977,-0.0449 0.005,10e-5 0.01,7.5e-4 0.0156,0.002 0.0249,0.004 0.0502,0.0106 0.0723,0.0234 0.0182,0.0107 0.0379,0.0201 0.0547,0.0332 0.0203,0.0159 0.036,0.0331 0.0547,0.0508 0.0247,0.0244 0.0473,0.0515 0.0605,0.084 0.024,0.0552 0.0338,0.11573 0.0488,0.17383 0.0231,0.0872 0.0464,0.17481 0.0703,0.26171 0.0146,0.0539 0.0264,0.1078 0.0391,0.16211 0.0681,-0.0122 0.0605,0.0937 0.0625,0.12696 5.3e-4,0.0555 -6.4e-4,0.11067 -0.004,0.16601 0.003,0.021 0.005,0.0433 0.006,0.0645 0,0.03 -8.2e-4,0.0599 -0.002,0.0898 0.004,0.0344 0.007,0.0691 0.01,0.10352 0.002,0.0573 0.01,0.0691 0.008,0.12695 -0.003,0.10196 -0.0138,0.20346 -0.0254,0.30469 -0.009,0.065 -0.014,0.10762 -0.0254,0.16992 0.0269,-0.0345 0.058,-0.0677 0.0996,-0.084 0.01,-0.003 0.0212,-0.007 0.0293,-0.008 h 0.002 c 0.003,3.1e-4 0.007,9.5e-4 0.01,0.002 l 0.002,0.002 c 0.002,5e-4 0.006,0.001 0.008,0.002 l 0.002,0.002 h 0.002 v 0.002 h 0.002 v 0.002 h 0.002 v 0.002 h 0.002 v 0.002 0.002 0.002 h 0.002 0.002 c 0.006,0.0179 -0.004,0.0464 -0.0391,0.0625 -0.0279,0.0128 -0.0484,0.0386 -0.0664,0.0625 -0.039,0.065 -0.0603,0.13739 -0.084,0.20899 v 0.002 l -0.002,0.002 -0.002,0.002 v 0.002 c 0.007,0.0122 0.008,0.0319 0,0.0547 -0.009,0.0247 -0.0191,0.048 -0.0293,0.0723 v 0.002 0.002 c -1e-4,5.6e-4 -0.001,0.005 -0.002,0.008 v 0.002 0.002 0.002 l -0.002,0.002 v 0.002 l -0.002,0.002 -0.004,0.002 v 0.002 c -9.4e-4,0.0172 -0.002,0.0337 -0.004,0.0508 -0.008,0.0633 -0.016,0.12638 -0.041,0.18554 -0.007,0.0323 -0.0141,0.0636 -0.0215,0.0937 -0.002,0.0328 -0.008,0.0666 -0.0117,0.0996 -0.01,0.0606 -0.0224,0.12191 -0.0488,0.17774 v 0.002 l -0.002,0.002 v 0.002 0.002 0.002 c -0.004,0.0244 -0.008,0.049 -0.0156,0.0723 -0.009,0.0267 -0.0254,0.0485 -0.0469,0.0664 -0.0156,0.01 -0.0354,0.021 -0.0547,0.0215 h -0.002 c -0.004,0.003 -0.008,0.006 -0.0117,0.008 h -0.002 -0.002 c -0.001,1.1e-4 -0.005,0 -0.006,0 h -0.002 l -0.002,0.002 h -0.002 -0.002 l -0.002,0.002 v 0.002 l -0.002,0.002 c -0.0521,0.0895 0.12384,0.83271 0.39844,1.65234 1.07977,3.2229 3.55202,6.18857 7.14648,8.57031 2.15026,1.42481 3.79052,1.90744 7.22461,2.12891 0.23754,0.016 2.26974,0.0167 4.51563,0.006 3.16233,-0.0164 4.30427,-0.048 5.06445,-0.14453 2.77965,-0.3529 4.57492,-1.00224 8.12891,-2.9375 7.65728,-4.1696 12.09936,-8.28729 13.45508,-12.47266 0.35309,-1.08997 0.4435,-1.69309 0.4375,-2.89649 -0.005,-0.96418 -0.0319,-1.18522 -0.22071,-1.80468 -0.49454,-1.62245 -1.37808,-3.06948 -2.73828,-4.48438 -1.07076,-1.11382 -2.21673,-1.98686 -3.42578,-2.61133 -1.60935,-0.83126 -2.55001,-1.06065 -4.9082,-1.19531 -1.46625,-0.0837 -1.78975,-0.0723 -1.80274,0.12305 v 0.004 h 0.002 v 0.002 0.002 l 0.002,0.002 c 0.0101,0.0126 0.0188,0.026 0.0254,0.041 v 0.002 c 10e-4,0.003 0.003,0.009 0.004,0.0117 l 0.002,0.002 v 0.002 c 0.004,0.0204 -0.006,0.0399 -0.0117,0.0586 l -0.004,0.0117 -0.002,0.002 v 0.002 0.002 0.002 l -0.002,0.002 c -0.001,-2e-5 -0.004,10e-6 -0.006,0 v 0.002 0.002 c -0.01,0.0789 -0.0643,0.14283 -0.16602,0.19141 l -0.0117,0.0117 c -0.009,0.008 -0.0203,0.0154 -0.0293,0.0234 -0.0144,0.011 -0.0352,0.0268 -0.0508,0.0371 l -0.002,0.002 -0.002,0.002 h -0.002 l -0.002,0.002 v 0.004 l 0.002,0.002 v 0.006 c -10e-6,8.6e-4 7e-5,0.005 0,0.006 -0.002,0.0103 -0.009,0.023 -0.0117,0.0332 -0.0157,0.003 -0.031,0.008 -0.0469,0.01 -0.0349,0.005 -0.11223,0.009 -0.14453,0.01 -0.0433,10e-4 -0.11791,0.002 -0.16211,0 -0.0205,-9.9e-4 -0.0401,-0.003 -0.0605,-0.004 -0.0156,-0.002 -0.0415,-0.004 -0.0586,-0.0137 l -0.002,-0.002 -0.002,-0.002 h -0.002 l -0.002,-0.002 -0.002,-0.004 c -0.003,1.8e-4 -0.007,-1.8e-4 -0.01,0 v 0.002 h 0.002 v 0.002 0.002 h 0.002 v 0.002 l 0.002,0.002 v 0.002 l 0.002,0.002 v 0.002 0.002 l 0.002,0.002 0.002,0.002 v 0.002 0.002 l -0.002,0.002 v 0.002 h -0.002 l -0.002,0.002 c -0.009,-2.4e-4 -0.0274,-0.008 -0.043,-0.0137 -0.016,0.003 -0.0334,7.3e-4 -0.0488,-0.002 v 0.002 0.002 l 0.002,0.002 0.002,0.002 c -0.14267,-0.003 -0.2852,-0.008 -0.42773,-0.0117 -0.0501,-9.9e-4 -0.10025,-0.003 -0.1504,-0.004 -0.008,0 -0.019,6e-5 -0.0312,0 -0.006,-1.7e-4 -0.0116,1.9e-4 -0.0176,0 -0.0226,8.6e-4 -0.0454,0.006 -0.0664,-0.002 -0.003,-1.3e-4 -0.007,1.2e-4 -0.01,0 -0.008,-1.8e-4 -0.0156,-7.6e-4 -0.0234,-0.002 -0.005,-2.1e-4 -0.0106,2.3e-4 -0.0156,0 h -0.002 c -0.34401,-0.0153 -0.58222,-0.0519 -0.72461,-0.10938 -0.003,1.9e-4 -0.009,-7e-5 -0.0117,0 h -0.002 -0.002 c -1.2e-4,-4e-5 -0.005,-5e-5 -0.006,0 v -0.002 h -0.002 -0.002 l -0.004,-0.002 h -0.006 -0.004 -0.002 c -9.3e-4,5e-5 -0.007,9e-5 -0.008,0 h -0.002 -0.002 l -0.002,-0.002 -0.002,-0.002 v -0.002 l -0.002,-0.002 v -0.002 -0.002 -0.002 -0.002 h 0.002 v -0.002 c -0.003,-10e-4 -0.005,-0.002 -0.008,-0.004 -0.008,-0.002 -0.016,-0.004 -0.0234,-0.006 -0.0274,-0.007 -0.0546,-0.0125 -0.082,-0.0195 -0.01,-0.003 -0.0271,-0.008 -0.0371,-0.0117 v -0.002 h -0.002 v -0.002 h -0.002 -0.002 l -0.002,-0.002 -0.002,-0.002 -0.002,-0.002 h -0.002 l -0.002,-0.006 v -0.002 h -0.002 l -0.002,-0.004 v -0.002 l -0.002,-0.002 v -0.002 l -0.002,-0.004 v -0.002 -0.002 -0.004 -0.002 l 0.002,-0.002 0.002,-0.002 v -0.002 -0.002 -0.002 h 0.002 v -0.002 l 0.008,-0.008 c 0.006,-0.004 0.0133,-0.006 0.0215,-0.008 v -0.002 -0.002 l -0.008,-0.004 -0.002,-0.002 h -0.002 l -0.004,-0.002 v -0.006 l -0.002,-0.002 v -0.002 c -0.001,-0.004 -0.003,-0.0101 -0.004,-0.0137 l -0.002,-0.002 c 0.003,-0.006 0.009,-0.0158 0.0117,-0.0215 l 0.002,-0.002 0.002,-0.006 v -0.004 h -0.002 v -0.002 l -0.002,-0.002 -0.002,-0.002 v -0.002 -0.002 -0.002 h -0.002 -0.002 c -0.006,-0.01 -0.0103,-0.0179 -0.0117,-0.0234 -1.2e-4,-9.8e-4 -3e-5,-0.005 0,-0.006 v -0.002 -0.002 h 0.002 v -0.002 l 0.002,-0.002 h 0.002 l 0.002,-0.002 h 0.002 0.004 0.002 v -0.004 h 0.002 v -0.002 h 0.002 v -0.004 l 0.01,-0.01 c 0.0106,-0.008 0.0219,-0.0164 0.0332,-0.0234 0.004,-0.002 0.008,-0.005 0.0117,-0.008 0.002,-0.009 3.6e-4,-0.0215 -0.002,-0.0293 v -0.002 l -0.002,-0.002 -0.002,-0.002 -0.002,-0.002 -0.004,-0.004 c -0.0645,-0.0509 -0.40382,-0.002 -1.79102,0.18164 -2.34105,0.31003 -4.68605,0.84935 -6.29296,1.44727 -1.89404,0.70476 -3.28709,1.64531 -4.93946,3.3418 -2.389,2.4528 -4.28987,5.60359 -5.4082,8.95898 -0.40407,1.21226 -0.61309,2.17161 -1.07031,4.93164 -0.18244,1.10135 -0.35487,2.02939 -0.38477,2.0625 -0.0299,0.0332 -0.81262,-0.71024 -1.73828,-1.65039 -1.80542,-1.83365 -2.13096,-2.26869 -2.45117,-3.2793 -0.15261,-0.48159 -0.17392,-0.71523 -0.16992,-1.88476 0.01,-2.61154 0.53176,-5.41214 1.58007,-8.46875 0.68915,-2.00936 1.07778,-2.8231 2.10547,-4.41016 3.59107,-5.54567 13.06857,-14.98752 17.04297,-16.98047 0.34519,-0.17309 0.91168,-0.38701 1.25977,-0.47461 1.60958,-0.40521 2.79715,-1.28944 3.34375,-2.49218 0.14276,-0.31415 0.17864,-0.5357 0.18164,-1.13672 0.003,-0.65268 -0.0239,-0.80207 -0.21094,-1.20117 -0.56793,-1.21217 -2.17745,-2.09556 -3.82617,-2.09766 z m 2.75781,23.31445 v 0.002 h 0.002 v -0.002 z m -0.01,0.0664 v 0.002 h 0.002 v -0.002 z m 0.004,0.002 v 0.002 h 0.002 v -0.002 z m 2.20117,0.13282 c -0.0131,0.004 -0.0269,0.008 -0.041,0.0117 l 0.002,0.002 h 0.002 0.002 0.002 c 0.009,0.002 0.0184,0.004 0.0273,0.006 v -0.002 c 10e-4,-0.004 0.005,-0.0113 0.008,-0.0156 v -0.002 z m -0.17578,0.0391 c -0.0417,0.007 -0.0853,0.0107 -0.13281,0.0156 0.0813,0.002 0.16324,0.001 0.24414,-0.006 -0.0368,-0.005 -0.0743,-0.007 -0.11133,-0.01 z m -0.57617,0.043 v 0.002 h 0.002 0.002 v -0.002 h -0.002 z m -0.15039,5.88086 h 0.002 c 2.65323,-0.0969 4.88969,0.25265 6.47461,1.01171 1.55333,0.74393 2.28953,2.1079 1.74024,3.22461 -0.21965,0.44657 -0.84817,1.2775 -1.60157,2.11719 -0.30033,0.33473 -0.5278,0.60938 -0.5039,0.60938 0.0239,0 0.27719,-0.17663 0.5625,-0.39258 0.19877,-0.15045 0.36546,-0.2602 0.49023,-0.32617 0.0139,-0.01 0.0272,-0.0197 0.041,-0.0293 0.0297,-0.0436 0.0598,-0.0854 0.0898,-0.12891 v -0.002 l 0.002,-0.002 v -0.002 l 0.002,-0.002 0.002,-0.002 h 0.002 v -0.002 h 0.002 l 0.002,-0.002 h 0.002 c 7.5e-4,-0.005 0.003,-0.0103 0.004,-0.0137 v -0.002 -0.002 h 0.002 c 0.0105,0.009 0.0246,0.0195 0.0352,0.0293 0.009,0.004 0.0182,0.009 0.0273,0.0137 0.0699,-0.0476 0.14042,-0.0932 0.21289,-0.13672 0.0195,-0.0115 0.0571,-0.0369 0.0801,-0.0449 0.006,-0.002 0.0131,-0.004 0.0195,-0.006 0.006,-10e-4 0.0132,-10e-4 0.0195,0 0.0102,0.001 0.0187,0.004 0.0254,0.008 h 0.002 0.002 l 0.002,0.002 v 0.002 c 0.002,0.002 0.006,0.007 0.008,0.01 0.003,0.005 0.007,0.0126 0.01,0.0195 l 0.002,0.002 v 0.002 0.002 0.002 0.002 c 1.1e-4,0.006 -0.002,0.0155 -0.002,0.0215 -0.003,0.007 -0.005,0.0164 -0.008,0.0234 -0.005,0.0112 -0.0213,0.0379 -0.0273,0.0469 -0.0243,0.0384 -0.0507,0.0758 -0.0762,0.11328 -0.10453,0.15279 -0.21502,0.30075 -0.32812,0.44727 -0.0368,0.0484 -0.1101,0.14456 -0.14648,0.19336 -0.0999,0.13412 -0.19651,0.27001 -0.29883,0.40234 -0.16637,0.21647 -0.33595,0.43173 -0.52735,0.62695 -0.0356,0.0351 -0.0693,0.0712 -0.10547,0.10547 -0.12321,0.11677 -0.25532,0.22527 -0.38867,0.33008 -0.0152,0.0119 -0.0297,0.0233 -0.0449,0.0352 l -0.002,0.002 -0.002,0.002 -0.002,0.002 -0.002,0.002 c -0.014,0.0167 -0.0279,0.0329 -0.043,0.0488 -0.0226,0.0238 -0.0487,0.0498 -0.0723,0.0723 -0.0157,0.0149 -0.0311,0.03 -0.0469,0.0449 -0.0298,0.0271 -0.0528,0.0466 -0.0781,0.0684 v 0.002 h -0.002 v 0.002 l -0.002,0.002 v 0.002 l 0.002,0.002 h 0.002 0.002 l 0.002,0.002 0.002,0.002 c 4.1e-4,4.6e-4 0.003,0.005 0.004,0.006 v 0.002 l 0.002,0.002 c 0.007,0.0175 -0.002,0.0448 -0.0351,0.0606 -0.019,0.009 -0.0373,0.017 -0.0566,0.0254 7.6e-4,3.2e-4 0.005,0.002 0.006,0.002 l 0.002,0.002 h 0.002 l 0.002,0.002 c 0.0103,0.01 0.0156,0.0202 0.0176,0.0293 2.8e-4,0.002 1.1e-4,0.008 0,0.01 -0.002,0.013 -0.009,0.027 -0.0176,0.0391 0.04,-0.007 0.0791,-0.0119 0.11915,-0.0137 0.0168,-6.6e-4 0.034,-1.2e-4 0.0508,0 0.0131,0.005 0.0295,0.006 0.041,0.0137 l 0.002,0.002 0.002,0.002 0.002,0.002 c 0.0492,0.0632 -0.0475,0.10661 -0.0859,0.12891 -0.14562,0.0722 -0.29677,0.1315 -0.44921,0.1875 -0.14567,0.0523 -0.12251,0.0432 -0.27344,0.0957 -0.0463,0.0161 -0.0924,0.0326 -0.13867,0.0488 l -0.0176,0.006 h -0.002 v 0.002 h -0.002 c -0.0329,0.0237 -0.0669,0.0477 -0.10156,0.0684 -0.0309,0.0185 -0.0389,0.0218 -0.0703,0.0371 -0.0256,0.009 -0.0587,0.0253 -0.0859,0.0293 -0.0118,0.002 -0.0292,0.002 -0.043,-0.002 -0.002,-9.1e-4 -0.008,-0.003 -0.01,-0.004 l -0.002,-0.002 -0.002,-0.002 -0.002,-0.002 -0.002,-0.002 v -0.002 -0.002 l -0.002,-0.002 v -0.002 l -0.002,-0.002 c -9.1e-4,-0.003 -0.002,-0.008 -0.002,-0.0117 -9e-5,-10e-4 0,-0.003 0,-0.004 5e-5,-5e-4 3e-5,-0.003 0,-0.004 v -0.002 l 0.002,-0.002 c 0.001,-0.004 0.002,-0.009 0.004,-0.0117 v -0.002 c -0.0123,-0.0119 -0.0233,-0.0283 -0.0312,-0.043 v -0.002 -0.002 l 0.002,-0.002 c 0.002,-9.1e-4 0.008,-0.003 0.01,-0.004 l 0.002,-0.002 h 0.002 0.002 0.002 v -0.002 l 0.002,-0.002 c -0.006,-8.9e-4 -0.0133,-0.002 -0.0195,-0.002 10e-4,-0.006 8.9e-4,-0.0114 0.002,-0.0176 -0.0218,-0.0208 -0.0359,-0.0483 -0.043,-0.0801 -0.002,-0.0115 -0.003,-0.0253 -0.004,-0.0371 2e-5,-0.0121 -7e-4,-0.0231 0,-0.0352 0.002,-0.0303 0.007,-0.0609 0.0156,-0.0898 -0.007,-0.0163 -0.0136,-0.0327 -0.0176,-0.0508 -0.008,-0.008 -0.0145,-0.0205 -0.0195,-0.0371 -0.007,-0.0217 0.01,-0.0441 0.0137,-0.0664 l 0.002,-0.002 v -0.002 h 0.002 v -0.002 -0.002 l 0.002,-0.002 c 0.003,-0.015 0.008,-0.0302 0.0117,-0.0449 -4.4e-4,-0.0161 8e-4,-0.0326 0.004,-0.0488 v -0.12305 l -0.37305,0.34766 c -1.76687,1.64475 -4.69026,3.7745 -6.27539,4.57031 -1.61817,0.81241 -4.28611,1.55261 -7.28906,2.02344 -1.16276,0.18228 -3.88622,0.27222 -4.39454,0.14453 -0.1706,-0.0429 -0.37492,-0.13623 -0.45312,-0.20703 -0.96453,-0.87289 -0.0295,-6.60974 1.63476,-10.03907 0.68841,-1.41853 1.75934,-2.39058 3.6836,-3.33789 2.57958,-1.26992 5.5976,-1.96301 9.10742,-2.09179 z m 7.67578,5.95703 v 0.002 h -0.002 v 0.002 c 9e-5,2.5e-4 0.002,0.005 0.002,0.006 l 0.002,-0.002 v -0.002 l 0.002,-0.002 v -0.002 -0.002 h -0.002 z m -0.0234,0.0527 c -0.009,0.005 -0.0184,0.0107 -0.0273,0.0156 -0.04,0.024 -0.0781,0.0487 -0.11719,0.0742 0.0222,-0.005 0.0434,-0.008 0.0586,-0.006 0.008,10e-4 0.0156,0.004 0.0234,0.008 0.0211,-0.0308 0.0425,-0.0603 0.0625,-0.0918 z m -0.10937,0.13086 v 0.002 h 0.002 v -0.002 z m -0.48633,0.68359 c -0.0289,0.0287 -0.0573,0.057 -0.0859,0.0859 -0.004,0.0177 -0.01,0.0356 -0.0156,0.0527 0.0338,-0.0462 0.0676,-0.0925 0.10156,-0.13868 z m -0.5332,0.69141 c -0.0136,0.0131 -0.0275,0.026 -0.041,0.0391 -0.0229,0.0213 -0.0467,0.0432 -0.0703,0.0645 -2.5e-4,10e-4 -0.002,0.005 -0.002,0.006 l -0.002,0.002 v 0.002 l -0.002,0.002 v 0.002 h -0.002 v 0.002 h -0.002 -0.002 -0.002 -0.002 -0.002 c -0.006,0.005 -0.0117,0.0103 -0.0176,0.0156 l -0.002,0.002 c -0.0252,0.0295 -0.0506,0.0586 -0.0762,0.0879 -0.0239,0.0279 -0.0464,0.0564 -0.0703,0.084 l 0.002,0.002 h 0.002 l 0.002,0.002 v 0.002 h 0.002 c 0.0172,-0.0172 0.0335,-0.0337 0.0508,-0.0508 0.0827,-0.0844 0.16041,-0.17327 0.23633,-0.26367 z m -0.94141,1.29297 c -0.0696,0.006 -0.13838,0.0203 -0.20508,0.041 -0.0403,0.035 -0.0816,0.0686 -0.125,0.0996 0.1121,-0.0424 0.22206,-0.0872 0.33008,-0.14062 z" />
    <path style="fill:#000000;fill-opacity:1" d="m 334.51562,403.28906 c 0.1211,-0.004 0.34375,-0.0117 0.34375,-0.0117 l -0.28906,-0.125 z" id="path44" />
  </g>
</svg>