<?xml version="1.0" encoding="UTF-8" standalone="no"?>
<svg
   viewBox="0 0 128 128"
   version="1.1"
   id="svg1"
   sodipodi:docname="javascript_icon.svg"
   inkscape:version="1.4.2 (ebf0e94, 2025-05-08)"
   xmlns:inkscape="http://www.inkscape.org/namespaces/inkscape"
   xmlns:sodipodi="http://sodipodi.sourceforge.net/DTD/sodipodi-0.dtd"
   xmlns="http://www.w3.org/2000/svg"
   xmlns:svg="http://www.w3.org/2000/svg">
  <defs
     id="defs1" />
  <sodipodi:namedview
     id="namedview1"
     pagecolor="#ffffff"
     bordercolor="#000000"
     borderopacity="0.25"
     inkscape:showpageshadow="2"
     inkscape:pageopacity="0.0"
     inkscape:pagecheckerboard="0"
     inkscape:deskcolor="#d1d1d1"
     inkscape:zoom="6.3671875"
     inkscape:cx="63.921472"
     inkscape:cy="64"
     inkscape:window-width="1920"
     inkscape:window-height="1017"
     inkscape:window-x="-8"
     inkscape:window-y="-8"
     inkscape:window-maximized="1"
     inkscape:current-layer="svg1" />
  <path
     fill="#F0DB4F"
     d="M2 1v125h125V1H2zm66.119 106.513c-1.845 3.749-5.367 6.212-9.448 7.401-6.271 1.44-12.269.619-16.731-2.059-2.986-1.832-5.318-4.652-6.901-7.901l9.52-5.83c.083.035.333.487.667 1.071 1.214 2.034 2.261 3.474 4.319 4.485 2.022.69 6.461 1.131 8.175-2.427 1.047-1.81.714-7.628.714-14.065C58.433 78.073 58.48 68 58.48 58h11.709c0 11 .06 21.418 0 32.152.025 6.58.596 12.446-2.07 17.361zm48.574-3.308c-4.07 13.922-26.762 14.374-35.83 5.176-1.916-2.165-3.117-3.296-4.26-5.795 4.819-2.772 4.819-2.772 9.508-5.485 2.547 3.915 4.902 6.068 9.139 6.949 5.748.702 11.531-1.273 10.234-7.378-1.333-4.986-11.77-6.199-18.873-11.531-7.211-4.843-8.901-16.611-2.975-23.335 1.975-2.487 5.343-4.343 8.877-5.235l3.688-.477c7.081-.143 11.507 1.727 14.756 5.355.904.916 1.642 1.904 3.022 4.045-3.772 2.404-3.76 2.381-9.163 5.879-1.154-2.486-3.069-4.046-5.093-4.724-3.142-.952-7.104.083-7.926 3.403-.285 1.023-.226 1.975.227 3.665 1.273 2.903 5.545 4.165 9.377 5.926 11.031 4.474 14.756 9.271 15.672 14.981.882 4.916-.213 8.105-.38 8.581z"
     id="path1" />
  <path
     style="fill:#ffffff;fill-opacity:1;stroke-width:0.157055"
     d="m 49.106744,115.27827 c -4.045292,-0.65927 -7.423648,-2.27145 -9.967442,-4.75654 -1.92753,-1.88304 -4.203308,-5.29604 -3.765254,-5.64677 0.109427,-0.0876 1.965829,-1.23857 4.125339,-2.55768 2.159509,-1.31911 4.178751,-2.557446 4.487204,-2.751856 l 0.560824,-0.353477 0.748198,1.248503 c 1.513499,2.52554 3.12402,4.00672 4.858816,4.46862 1.083702,0.28855 3.457308,0.27914 4.456724,-0.0176 1.834749,-0.54486 3.08753,-1.87131 3.593623,-3.80493 0.257892,-0.98533 0.282159,-2.58478 0.334834,-22.068453 L 58.5964,58.031952 h 5.706427 5.706428 l 0.107085,8.04908 c 0.0589,4.426993 0.0761,13.950429 0.03823,21.16319 -0.05729,10.911554 -0.110091,13.364808 -0.314347,14.606788 -0.685667,4.16916 -2.566861,7.73585 -5.212157,9.8821 -2.08232,1.68948 -4.721557,2.89838 -7.408243,3.39334 -1.943762,0.35809 -6.342467,0.44043 -8.113077,0.15187 z"
     id="path2" />
  <path
     style="fill:#ffffff;fill-opacity:1;stroke-width:0.157055"
     d="m 94.625767,115.3419 c -5.558572,-0.67593 -10.501162,-2.84924 -13.604727,-5.98214 -1.583006,-1.59797 -3.128155,-3.53977 -3.759978,-4.72519 -0.489004,-0.91747 -0.496034,-0.95678 -0.208709,-1.16729 0.163537,-0.11982 2.269058,-1.35322 4.678935,-2.74089 3.738038,-2.15247 4.402605,-2.485504 4.524644,-2.267433 0.471689,0.842862 2.18602,2.899153 3.152162,3.780933 2.523579,2.30323 6.154344,3.3947 9.693746,2.91411 3.40691,-0.4626 5.47864,-1.7417 6.27697,-3.87544 0.35385,-0.94575 0.42918,-2.717304 0.15719,-3.696592 -0.61195,-2.203263 -2.84058,-3.745177 -9.496736,-6.570472 -5.87923,-2.495518 -9.008058,-4.348052 -11.386503,-6.741784 -2.084567,-2.097965 -3.160382,-4.059217 -4.043017,-7.37058 -0.554763,-2.08129 -0.589517,-5.669571 -0.07502,-7.745641 1.1244,-4.537119 3.879012,-7.949295 8.122946,-10.062005 2.92652,-1.456876 6.54224,-2.112485 10.206333,-1.850631 5.346017,0.382053 8.678047,1.810167 11.785867,5.051445 1.35854,1.416876 3.29453,4.05701 3.09922,4.22644 -0.2095,0.18174 -8.56836,5.518685 -8.75669,5.590958 -0.0993,0.03812 -0.25499,-0.09244 -0.34589,-0.290133 -0.76637,-1.666743 -3.06436,-3.648077 -4.882392,-4.209611 -1.319474,-0.407544 -3.280891,-0.416821 -4.550979,-0.02152 -2.831459,0.881248 -4.081056,3.131037 -3.466205,6.240591 0.228937,1.157832 0.637857,1.821776 1.745516,2.834113 1.076743,0.984083 2.337763,1.643272 7.02289,3.671166 4.50917,1.951734 6.53823,2.979064 8.66012,4.384685 4.96024,3.285857 7.16449,6.534599 7.92475,11.67989 0.6247,4.227881 -0.17533,8.385111 -2.21288,11.498841 -0.79558,1.21578 -2.71248,3.13726 -3.98591,3.99543 -2.20567,1.4864 -5.26418,2.67313 -8.34894,3.23947 -1.61982,0.29739 -6.206358,0.41848 -7.926712,0.20928 z"
     id="path3" />
</svg>
