<?xml version="1.0" encoding="UTF-8" standalone="no"?>
<svg
   height="176.389mm"
   style="shape-rendering:geometricPrecision; text-rendering:geometricPrecision; image-rendering:optimizeQuality; fill-rule:evenodd; clip-rule:evenodd"
   version="1.1"
   viewBox="0 0 17639 17639"
   width="176.389mm"
   xml:space="preserve"
   id="svg6"
   sodipodi:docname="excel_icon.svg"
   inkscape:version="1.4.2 (ebf0e94, 2025-05-08)"
   xmlns:inkscape="http://www.inkscape.org/namespaces/inkscape"
   xmlns:sodipodi="http://sodipodi.sourceforge.net/DTD/sodipodi-0.dtd"
   xmlns="http://www.w3.org/2000/svg"
   xmlns:svg="http://www.w3.org/2000/svg"><sodipodi:namedview
     id="namedview6"
     pagecolor="#ffffff"
     bordercolor="#000000"
     borderopacity="0.25"
     inkscape:showpageshadow="2"
     inkscape:pageopacity="0.0"
     inkscape:pagecheckerboard="0"
     inkscape:deskcolor="#d1d1d1"
     inkscape:document-units="mm"
     inkscape:zoom="1.2224992"
     inkscape:cx="332.92456"
     inkscape:cy="333.33356"
     inkscape:window-width="1920"
     inkscape:window-height="1017"
     inkscape:window-x="-8"
     inkscape:window-y="-8"
     inkscape:window-maximized="1"
     inkscape:current-layer="svg6" /><defs
     id="defs1"><style
       type="text/css"
       id="style1">
   <![CDATA[
    .fil0 {fill:#1E7145}
   ]]>
  </style></defs><g
     id="Layer_x0020_1"><path
       class="fil0"
       d="M9596 3634l0 10265 -6103 -1058 0 -8149 6103 -1058zm290 1185l4053 0c224,0 267,44 267,267l0 7360c0,223 -43,267 -267,267l-4053 0 0 -694 1547 0 0 -1066 -1547 0 0 -320 1547 0 0 -1067 -1547 0 0 -320 1547 0 0 -1067 -1547 0 0 -320 1547 0 0 -1066 -1547 0 0 -320 1547 0 0 -1067 -1547 0 0 -587zm-7803 10774l13474 0 2 -13476 -13478 0 2 13476z"
       id="path1" /><polygon
       class="fil0"
       points="7129,6861 6573,8133 6141,6938 5446,6969 6136,8710 5359,10413 6042,10464 6590,9239 7100,10535 7886,10578 7034,8703 7849,6809 "
       id="polygon1" /><polygon
       class="fil0"
       points="11753,12019 13513,12019 13513,10953 11753,10953 "
       id="polygon2" /><polygon
       class="fil0"
       points="11753,10633 13513,10633 13513,9566 11753,9566 "
       id="polygon3" /><polygon
       class="fil0"
       points="11753,9246 13513,9246 13513,8179 11753,8179 "
       id="polygon4" /><polygon
       class="fil0"
       points="11753,6473 13513,6473 13513,5406 11753,5406 "
       id="polygon5" /><polygon
       class="fil0"
       points="11753,7859 13513,7859 13513,6793 11753,6793 "
       id="polygon6" /></g><path
     style="fill:#ffffff;stroke-width:0.817996"
     d="M 246.62593,504.82668 132.92442,485.04744 V 331.33218 177.61692 l 112.02346,-19.4227 c 61.6129,-10.68248 113.2387,-19.65068 114.724,-19.92932 l 2.70055,-0.50663 V 331.2515 c 0,154.28627 -0.20718,193.47917 -1.02249,193.42381 -0.56238,-0.0382 -52.18818,-8.97006 -114.72401,-19.84863 z m 51.94278,-104.7179 c 0,-0.16528 -7.18904,-16.08554 -15.97564,-35.37835 -9.99012,-21.93539 -15.82465,-35.69081 -15.57262,-36.71385 0.22167,-0.8998 7.05044,-17.05761 15.17507,-35.90626 8.12463,-18.84864 14.57729,-34.465 14.33927,-34.70302 -0.61039,-0.61041 -26.8748,1.42731 -27.50912,2.13428 -0.28686,0.31972 -4.8388,10.51995 -10.11543,22.6672 -5.27664,12.14725 -9.84115,22.35358 -10.14336,22.68076 -0.30221,0.32716 -4.04294,-9.05935 -8.31274,-20.85891 l -7.76328,-21.45377 -13.39432,0.18461 c -7.36687,0.10154 -13.5134,0.30369 -13.65894,0.44923 -0.14555,0.14555 5.59536,15.04486 12.75756,33.10957 l 13.02218,32.84495 -14.66215,32.10133 c -8.06418,17.65573 -14.55791,32.20557 -14.4305,32.33298 0.36999,0.36999 18.56658,1.88707 22.72676,1.89476 l 3.7834,0.007 7.60007,-16.97343 c 4.18003,-9.33538 8.73518,-19.49109 10.12253,-22.56823 l 2.52247,-5.5948 9.35927,23.88107 c 5.1476,13.13459 9.74884,24.0124 10.22496,24.1729 0.47613,0.16052 6.57121,0.61879 13.54463,1.01838 6.97342,0.3996 13.50717,0.78179 14.51944,0.84931 1.01227,0.0675 1.84049,-0.0125 1.84049,-0.17771 z"
     id="path6"
     transform="scale(26.458482)" /><path
     style="fill:#ffffff;stroke-width:0.817996"
     d="m 373.82438,467.07598 v -12.67895 h 29.44787 29.44788 v -20.44991 -20.44991 h -29.44788 -29.44787 v -5.72597 -5.72598 h 29.44787 29.44788 v -20.44991 -20.44991 h -29.44788 -29.44787 v -5.72598 -5.72597 h 29.44787 29.44788 v -20.44991 -20.44992 h -29.44788 -29.44787 v -5.72597 -5.72598 h 29.44787 29.44788 V 276.8918 256.44189 h -29.44788 -29.44787 v -5.72597 -5.72598 h 29.44787 29.44788 v -20.44991 -20.44991 h -29.44788 -29.44787 v -10.63396 -10.63395 h 79.25504 c 76.81524,0 79.31448,0.0481 81.18615,1.56372 l 1.93111,1.56372 v 145.33892 145.33892 l -1.93111,1.56371 c -1.87167,1.51558 -4.37091,1.56372 -81.18615,1.56372 h -79.25504 z m 137.42341,-33.12886 v -20.44991 h -33.53786 -33.53785 v 20.44991 20.44991 h 33.53785 33.53786 z m 0,-52.35177 v -20.44991 h -33.53786 -33.53785 v 20.44991 20.44991 h 33.53785 33.53786 z m 0,-52.35177 v -20.44992 h -33.53786 -33.53785 v 20.44992 20.44991 h 33.53785 33.53786 z m 0,-52.35178 v -20.44991 h -33.53786 -33.53785 v 20.44991 20.44991 h 33.53785 33.53786 z m 0,-52.35177 v -20.44991 h -33.53786 -33.53785 v 20.44991 20.44991 h 33.53785 33.53786 z"
     id="path7"
     transform="scale(26.458482)" /></svg>
