<svg xmlns="http://www.w3.org/2000/svg" viewBox="0 0 24 24" fill="currentColor">
  <path d="M12 .5C5.73.5.5 5.73.5 12a11.5 11.5 0 0 0 7.86 10.93c.57.1.78-.25.78-.56l-.01-1.98c-3.2.7-3.88-1.54-3.88-1.54-.52-1.34-1.27-1.7-1.27-1.7-1.04-.7.08-.68.08-.68 1.15.08 1.75 1.18 1.75 1.18 1.02 1.75 2.68 1.25 3.33.95.1-.74.4-1.25.73-1.54-2.55-.29-5.23-1.27-5.23-5.65 0-1.25.45-2.27 1.18-3.07-.12-.29-.52-1.47.11-3.06 0 0 .97-.31 3.18 1.17a11.1 11.1 0 0 1 5.8 0c2.2-1.48 3.18-1.17 3.18-1.17.63 1.59.23 2.77.11 3.06.73.8 1.17 1.82 1.17 3.07 0 4.39-2.68 5.36-5.24 5.65.42.36.8 1.08.8 2.18l-.01 3.23c0 .31.2.66.79.55A11.5 11.5 0 0 0 23.5 12C23.5 5.73 18.27.5 12 .5Z"/>
</svg>
