<?xml version="1.0" encoding="UTF-8" standalone="no"?>
<svg
   width="64"
   height="64"
   version="1.1"
   id="svg1"
   sodipodi:docname="typescript_icon.svg"
   inkscape:version="1.4.2 (ebf0e94, 2025-05-08)"
   xmlns:inkscape="http://www.inkscape.org/namespaces/inkscape"
   xmlns:sodipodi="http://sodipodi.sourceforge.net/DTD/sodipodi-0.dtd"
   xmlns="http://www.w3.org/2000/svg"
   xmlns:svg="http://www.w3.org/2000/svg">
  <defs
     id="defs1" />
  <sodipodi:namedview
     id="namedview1"
     pagecolor="#ffffff"
     bordercolor="#000000"
     borderopacity="0.25"
     inkscape:showpageshadow="2"
     inkscape:pageopacity="0.0"
     inkscape:pagecheckerboard="0"
     inkscape:deskcolor="#d1d1d1"
     inkscape:zoom="6.3671875"
     inkscape:cx="52.927607"
     inkscape:cy="36.044172"
     inkscape:window-width="1920"
     inkscape:window-height="1017"
     inkscape:window-x="-8"
     inkscape:window-y="-8"
     inkscape:window-maximized="1"
     inkscape:current-layer="svg1" />
  <path
     d="M0 32v32h64.002V-.002H0zm51.577-2.55c1.625.406 2.865 1.128 4.003 2.306.59.63 1.463 1.778 1.534 2.052.02.08-2.763 1.95-4.45 2.997-.06.04-.305-.223-.58-.63-.823-1.2-1.686-1.717-3.007-1.808-1.94-.132-3.2.884-3.18 2.58 0 .498.07.792.274 1.2.427.884 1.22 1.412 3.708 2.49 4.582 1.97 6.542 3.27 7.76 5.12 1.36 2.062 1.666 5.354.742 7.802-1.016 2.662-3.535 4.47-7.08 5.07-1.097.193-3.698.163-4.876-.05-2.57-.457-5.008-1.727-6.512-3.393-.59-.65-1.737-2.347-1.666-2.47.03-.04.295-.203.59-.376l2.377-1.37 1.84-1.067.386.57c.538.823 1.717 1.95 2.428 2.326 2.042 1.077 4.846.924 6.227-.315.59-.538.833-1.097.833-1.92 0-.742-.09-1.067-.477-1.625-.498-.71-1.514-1.31-4.4-2.56-3.302-1.422-4.724-2.306-6.024-3.708-.752-.813-1.463-2.113-1.758-3.2-.244-.904-.305-3.17-.112-4.084.68-3.2 3.088-5.415 6.563-6.075 1.128-.213 3.75-.132 4.856.142zM36.552 32.12l.02 2.62h-8.33v23.67H22.35v-23.67h-8.33v-2.57l.07-2.64c.03-.04 5.1-.06 11.246-.05l11.185.03z"
     fill="#007acc"
     id="path1" />
  <path
     style="fill:#ffffff;stroke-width:0.157055"
     d="M 22.458896,46.488344 V 34.630675 H 18.296933 14.134969 V 32.117791 29.604908 H 25.28589 36.43681 v 2.512883 2.512884 H 32.274847 28.112883 V 46.488344 58.346012 H 25.28589 22.458896 Z"
     id="path2" />
  <path
     style="fill:#ffffff;stroke-width:0.157055"
     d="m 46.174233,58.43132 c -3.069313,-0.655121 -5.589559,-2.283773 -7.162651,-4.628702 -0.37452,-0.558279 -0.664658,-1.031342 -0.644749,-1.05125 0.01991,-0.01991 1.060301,-0.638123 2.311983,-1.373809 l 2.275785,-1.337611 0.384776,0.501499 c 0.717992,0.935796 2.030905,2.107207 2.730121,2.435878 1.781716,0.837505 4.22145,0.780822 5.660035,-0.131501 0.972932,-0.617015 1.245553,-1.197293 1.172221,-2.495091 -0.09543,-1.688912 -0.655821,-2.179946 -4.45022,-3.899458 -3.42908,-1.553959 -4.505885,-2.165263 -5.632443,-3.197548 -1.938965,-1.776709 -2.626486,-3.34009 -2.629738,-5.979863 -0.0011,-0.921706 0.07933,-1.981829 0.178806,-2.355828 0.678878,-2.5523 3.039015,-4.729504 5.843725,-5.390781 1.249698,-0.294646 3.810698,-0.29746 5.187546,-0.0057 0.584778,0.123918 1.503551,0.458127 2.041718,0.742689 1.009449,0.533759 2.798262,2.202705 3.299669,3.078564 l 0.279469,0.488174 -2.144311,1.420705 c -1.179371,0.781388 -2.188567,1.417949 -2.242659,1.41458 -0.05409,-0.0034 -0.331001,-0.322362 -0.615356,-0.708874 -0.833437,-1.132856 -1.564592,-1.525179 -2.985918,-1.602184 -1.046138,-0.05668 -1.301571,-0.01562 -1.898934,0.305223 -0.963569,0.517534 -1.307156,1.195207 -1.236101,2.438021 0.09841,1.721313 0.421903,1.97471 5.660197,4.433738 1.276217,0.599098 2.801245,1.408939 3.388952,1.799645 2.615248,1.738613 3.83115,3.98054 3.839672,7.079731 0.0063,2.289699 -0.589131,3.90863 -1.977452,5.376575 -0.993739,1.050731 -2.184451,1.781901 -3.803748,2.335731 -1.098806,0.375813 -1.538258,0.435192 -3.532235,0.477277 -1.519906,0.03208 -2.616823,-0.0244 -3.29816,-0.16983 z"
     id="path3" />
</svg>
